<?xml version="1.0" encoding="utf-8"?>
<!-- Generator: Adobe Illustrator 19.1.0, SVG Export Plug-In . SVG Version: 6.00 Build 0)  -->
<!DOCTYPE svg PUBLIC "-//W3C//DTD SVG 1.1//EN" "http://www.w3.org/Graphics/SVG/1.1/DTD/svg11.dtd">
<svg version="1.1" id="Layer_1" xmlns="http://www.w3.org/2000/svg" xmlns:xlink="http://www.w3.org/1999/xlink" x="0px" y="0px"
	 viewBox="0 0 439.1 76.7" enable-background="new 0 0 439.1 76.7" xml:space="preserve">
<g>
	<path fill="#FFFFFF" d="M0.2,58V37.2h7.1v5c3.4,6.2,7.9,9.3,13.4,9.3c2.8,0,5.2-0.9,7.1-2.6s2.9-4,2.9-6.8c0-2.7-0.8-4.7-2.4-5.8
		s-4.6-2.4-9-3.5c-5.1-1.4-8.9-2.7-11.4-3.9c-2.5-1.2-4.4-3-5.9-5.2S0,18.8,0,15.8C0,11,1.6,7.1,4.8,4.3C8,1.4,12,0,16.8,0
		c4.6,0,8.8,1.5,12.7,4.4V0.6h7v17.3h-7v-4c-2.9-4.4-7-6.6-12.1-6.6c-3.1,0-5.5,0.7-7.2,2.2s-2.5,3.2-2.5,5.1c0,1.5,0.4,2.9,1.3,4
		c0.8,1.2,1.9,2,3.2,2.6s3.9,1.3,7.8,2.3c5,1.3,8.7,2.5,11,3.7c2.3,1.1,4.2,3,5.9,5.7c1.6,2.7,2.5,5.7,2.5,9.1
		c0,4.9-1.7,8.9-5.1,12.1c-3.4,3.2-7.7,4.8-12.7,4.8c-5.2,0-9.9-1.9-14-5.6V58H0.2z"/>
	<path fill="#FFFFFF" d="M85.4,51V58H71.8v-4.8c-3.8,3.7-8,5.5-12.6,5.5c-3.6,0-6.7-1.2-9.4-3.5s-4-5.4-4-9c0-3.7,1.4-6.8,4.2-9.2
		s6.2-3.7,10.2-3.7c3.7,0,7.3,1.1,10.8,3.4v-3.9c0-2-0.2-3.6-0.6-4.7s-1.3-2.1-2.7-3s-3.2-1.3-5.5-1.3c-3.9,0-6.7,1.6-8.5,4.7
		l-7.5-2c3.3-6.2,9-9.3,17.1-9.3c3,0,5.6,0.4,7.7,1.2c2.2,0.8,3.8,1.8,4.9,3.1s1.8,2.6,2.2,4.1s0.6,3.8,0.6,7.1V51H85.4z M71,43.2
		c-3.4-2.6-6.8-3.9-10.2-3.9c-2.2,0-4,0.6-5.4,1.9S53.2,44,53.2,46c0,1.9,0.6,3.4,1.9,4.7s3,1.9,5.2,1.9c3.8,0,7.3-1.6,10.7-4.8
		V43.2z"/>
	<path fill="#FFFFFF" d="M95.2,51V7.8h-7.1V0.9H103V51h6.1V58H88.1V51H95.2z"/>
	<path fill="#FFFFFF" d="M156,40.1h-33.4c0.5,3.7,1.9,6.6,4.3,8.9s5.5,3.4,9.2,3.4c5.4,0,9.7-2.2,12.9-6.6l6.9,3
		c-2.2,3.5-5.2,6-8.7,7.7s-7.3,2.5-11.2,2.5c-6.1,0-11.3-1.9-15.6-5.7c-4.3-3.8-6.5-8.9-6.5-15.3c0-6.1,2.1-11.1,6.3-15.1
		s9-5.9,14.5-5.9c5.3,0,10.2,1.9,14.5,5.8C153.6,26.7,155.9,32.5,156,40.1z M148,34.4c-0.5-2.8-2-5.3-4.3-7.6s-5.2-3.4-8.7-3.4
		c-3.1,0-5.8,1-8,3.1c-2.2,2-3.6,4.7-4.1,7.9H148z"/>
	<path fill="#FFFFFF" d="M162.6,58V44.3h7v1.3c0.2,1.9,1.3,3.4,3,4.6s3.8,1.8,6.3,1.8c2.5,0,4.5-0.4,6-1.3s2.3-2.1,2.3-3.7
		c0-1.5-0.6-2.6-1.9-3.3s-3.7-1.4-7.4-2c-5.5-0.9-9.4-2.4-11.7-4.5s-3.5-4.7-3.5-8c0-3.3,1.3-6.1,3.8-8.3s5.9-3.3,10-3.3
		c3.7,0,7,0.8,9.7,2.3v-1.7h6.9v13.2h-6.9V29c-2.1-3.3-5.2-4.9-9.2-4.9c-2.1,0-3.7,0.4-5.1,1.3c-1.3,0.9-2,2.1-2,3.5
		c0,1.5,0.6,2.5,1.8,3.1c1.2,0.6,3.8,1.2,7.9,1.8c3.9,0.6,6.8,1.3,8.7,2.1s3.6,2.1,4.9,4c1.3,1.9,1.9,4.1,1.9,6.5
		c0,3.7-1.4,6.6-4.2,8.8c-2.8,2.2-6.5,3.3-11,3.3c-4.2,0-7.7-1-10.4-2.9V58H162.6z"/>
	<path fill="#FFFFFF" d="M227.4,50.8V8h-7.8V0.9h22.1c6.1,0,10.8,0.3,14.1,0.9c3.3,0.6,6.5,2.1,9.6,4.3s5.6,5.3,7.4,9.1
		c1.8,3.9,2.8,8.3,2.8,13.2c0,5.6-0.9,10.5-2.7,14.7s-4.1,7.3-7,9.3c-2.9,2.1-6.3,3.5-10.3,4.3s-9,1.2-15.2,1.2h-20.8v-7.1H227.4z
		 M236,50.8h4.5c5,0,9-0.3,12-0.9c2.9-0.6,5.4-1.7,7.4-3.2s3.7-3.8,4.9-6.9s1.9-6.7,1.9-10.8c0-4.9-1-9.1-3.1-12.6
		c-2.1-3.4-4.7-5.7-7.9-6.7c-3.2-1.1-8.2-1.6-14.8-1.6H236V50.8z"/>
	<path fill="#FFFFFF" d="M323.4,51V58h-13.6v-4.8c-3.8,3.7-8,5.5-12.6,5.5c-3.6,0-6.7-1.2-9.4-3.5s-4-5.4-4-9c0-3.7,1.4-6.8,4.2-9.2
		s6.2-3.7,10.2-3.7c3.7,0,7.3,1.1,10.8,3.4v-3.9c0-2-0.2-3.6-0.6-4.7s-1.3-2.1-2.7-3c-1.4-0.9-3.2-1.3-5.5-1.3
		c-3.9,0-6.7,1.6-8.5,4.7l-7.5-2c3.3-6.2,9-9.3,17.1-9.3c3,0,5.6,0.4,7.7,1.2c2.2,0.8,3.8,1.8,4.9,3.1s1.8,2.6,2.2,4.1
		s0.6,3.8,0.6,7.1V51H323.4z M309,43.2c-3.4-2.6-6.8-3.9-10.2-3.9c-2.2,0-4,0.6-5.4,1.9s-2.2,2.9-2.2,4.9c0,1.9,0.6,3.4,1.9,4.7
		s3,1.9,5.2,1.9c3.8,0,7.3-1.6,10.7-4.8V43.2z"/>
	<path fill="#FFFFFF" d="M338.1,58.6l-10.6-33.4h-4.8v-6.9h16.7v6.9h-5.2l7.6,24l7.6-24H345v-6.9h19.2v6.9h-4.4l7.6,24l7.6-24h-5.5
		v-6.9h17.9v6.9h-5.7l-10.6,33.4h-7.3l-9.1-28.7l-9.3,28.7H338.1z"/>
	<path fill="#FFFFFF" d="M439.1,18.3v6.9h-7.1v29.6c0,4-0.2,7-0.6,8.9s-1.4,3.9-3,5.9c-1.6,2-3.9,3.7-7.1,5.1
		c-3.1,1.4-6.7,2.1-10.5,2.1c-5.9,0-11.1-1.8-15.7-5.3l5.1-5.7c3.4,2.7,7.2,4,11.2,4c2.2,0,4.3-0.4,6.2-1.3s3.3-1.9,4.3-3.1
		s1.6-2.4,1.8-3.5s0.4-3,0.4-5.6v-3.6c-1.2,1.6-3.2,3-5.8,4.4s-5.5,2.1-8.6,2.1c-5.7,0-10.3-2-13.9-5.9s-5.4-8.8-5.4-14.5
		c0-6.3,2-11.4,5.9-15.2c4-3.9,8.5-5.8,13.7-5.8c5.2,0,9.9,2.1,14,6.3v-5.7H439.1z M398.8,38.5c0,4,1.2,7.3,3.5,9.8s5.3,3.8,9,3.8
		c3.6,0,6.6-1.3,9.2-3.8c2.6-2.6,3.9-5.8,3.9-9.9c0-4.1-1.3-7.3-3.9-9.8c-2.6-2.5-5.6-3.7-8.9-3.7s-6.4,1.2-8.9,3.7
		C400,31.1,398.8,34.4,398.8,38.5z"/>
</g>
</svg>
