<svg xmlns="http://www.w3.org/2000/svg" viewBox="0 0 119 39.9" class="car audi"> <ellipse opacity=".4" cx="59.5" cy="37.9" rx="59.1" ry="2"/> <path class="car-body" d="M118.1 31.5c-.4-.1-.3-1.2-.3-2.9 1.2.5 0-5.3-1-7.7-1.8-4.3-4.3-9.6-32.9-10.5C73.5 4.3 61.3-1.9 47.8.6 34.3 3 17.4 9.4 11.6 11.6c-5.8 2.2-7.5.9-8.7 6.2-1.2 5.3-3.8 7.8-2.6 11C1.5 32 6 33.1 13.4 33.7s58.3.3 71.2-.1c12.8-.3 39.8 0 33.5-2.1z"/> <g fill="#191919"> <path d="M21.2 17.7c6.1 0 11 4.9 11 11 0 .3.1 2.7.1 5.4-9.2 0-16.5-.1-19-.3-1.2-.1-2.3-.2-3.3-.3 0-2.4.1-4.3.1-4.7.1-6.2 5-11.1 11.1-11.1zM91.9 17.7c6.1 0 11 4.9 11 11 0 .3 0 2.4.1 4.7-5.9.2-12.5 0-18.4.2-1 0-2.3.1-3.8.1 0-2.5.1-4.6.1-5-.1-6.1 4.9-11 11-11z"/> </g> <circle fill="#070000" cx="92" cy="28.9" r="9.4"/> <path fill="#262626" d="M92 20.8c-4.8 0-8.8 3.8-9 8.6v-.5c0-5 4.1-9.1 9.1-9.1s9.1 4.1 9.1 9.1v.5c-.5-4.8-4.4-8.6-9.2-8.6z"/> <path fill="#262626" d="M92 36.2c3.9 0 7.1-3.1 7.3-6.9v.4c0 4-3.3 7.3-7.3 7.3s-7.3-3.3-7.3-7.3v-.4c.2 3.8 3.4 6.9 7.3 6.9z"/> <circle fill="#070000" cx="20.8" cy="28.9" r="9.4"/> <path fill="#262626" d="M20.8 20.8c-4.8 0-8.8 3.8-9 8.6v-.5c0-5 4.1-9.1 9.1-9.1s9.1 4.1 9.1 9.1v.5c-.4-4.8-4.4-8.6-9.2-8.6z"/> <path fill="#262626" d="M20.8 36.2c3.9 0 7.1-3.1 7.3-6.9v.4c0 4-3.3 7.3-7.3 7.3s-7.3-3.3-7.3-7.3v-.4c.2 3.8 3.4 6.9 7.3 6.9z"/> <path fill="#191919" d="M114.4 22.2c-.8-3.8-4.1-5.6-9.9-5.6-1.6 0-3.2.1-4.5.2h-.4v.3c3.3 1 5.9 5 5.9 5v.1H108.8c1.6 0 3.9 0 5.5.2h.2l-.1-.2z"/> <path fill="#96BCBB" d="M114.3 22.2c-3-.3-8.7-.1-8.7-.1s-2.6-4-6-5.1c4.7-.3 13.3-1.3 14.7 5.2z"/> <path fill="#FFF48D" d="M108.7 22.1c-1.7-1.8-3.4-3.5-5.1-5.3h2.1c1.9 1.7 3.7 3.4 5.4 5.3h-2.4zM106.9 16.9c3.4.3 6.6 1.6 7.5 5.4-.6-.1-1.4-.1-2.2-.1-1.7-1.9-3.5-3.7-5.3-5.3z"/> <path fill="#EDF1F4" d="M114 21.3l.3.9c-3-.3-8.7-.1-8.7-.1s-2.6-4-6-5.1c.7-.1 1.6-.1 2.4-.2 3.7 2.3 7.8 3.7 12 4.5z"/> <path fill="#2B2B2B" d="M110.4 28.7h7.3c.1 1 .2 1.9.3 2.9l-8.9.4c-.4 0-.5-.3-.2-.7l1.5-2.6zM110.6 27.9l1.4-2.5c.3-.4.8-.8 1.1-.8l4.1-.2c0 1.1.1 2.3.2 3.4h-6.8zM30.7 10.6l-2.3-.1c-3.4 0 13.3-8.6 26.4-8.6 7.9 0 21.4 7.6 22.7 8.4v.1l-46.8.2z"/> <path fill="#80C2DC" d="M42.5 4.6c-.1-.2-.1-.4-.2-.6 4-1.2 8.5-2 12.6-2 7.7 0 20.9 7.4 22.1 8.1v.1l-32 .2c-.9-1.9-1.7-3.8-2.5-5.8zM41.3 2c-.1.1-.1.3-.2.4C36 4.1 26.3 7 18.6 10.2h-3.3c6.2-2.3 16.3-5.9 26-8.2zM62.5 1c7.6 1.7 15.1 5.7 21.5 9.4h-2.7C72.7 4 61.7 1.6 62.5 1z"/> <path fill="#231F20" d="M51.6 32.3H76c2.5 0 2.6-3.3 2.6-7.8 0-1.2 0-2.4.1-3.7.3-6.3.3-7.4-1.6-10.6l-.1.1c1.9 3.1 1.9 4.2 1.6 10.5-.1 1.3-.1 2.5-.1 3.7 0 4.4-.1 7.7-2.5 7.7H51.6c-2.7 0-5.3-2.1-7.6-6.3-2-3.6-3.1-7.7-3.4-8.8-.6-2.2-.4-3.9.4-5 .8-1 2.2-1.5 4-1.5v-.1c-1.9 0-3.3.6-4.1 1.6-.9 1.2-1 2.9-.5 5.1.3 1.2 1.4 5.2 3.5 8.8 2.3 4.2 4.9 6.3 7.7 6.3z"/> <path fill="#BE5041" d="M6.9 13.2l9.5 3.6-5.7 3.6-8.1-1.2c0 .1.4-5.9 4.3-6z"/> <path fill="#711814" d="M5.3 17.3c-.8 0-1.5 0-2.3-.1.4-1.4 1.2-3.2 2.8-3.8 1.3 1.4 2.5 2.8 3.7 4.3-1.4-.2-2.8-.4-4.2-.4z"/> <path fill="#D77C7B" d="M5.6 18c1.5.1 3 .3 4.5.4.4.5.8 1.1 1.2 1.6l-.6.4-8.1-1.2s0-.6.2-1.3c1 .1 1.9.1 2.8.1z"/> <path fill="#1C171D" d="M15.2 16.5l-8.7-3.3h.4l9.5 3.6-5.2 3.3 4-3.6z"/> <path fill="#FFF" d="M116.8 22.6c-1.8-3.7-5.4-10.1-35.7-9.5 0-2-17.9-13.6-31.4-11.4C36.1 3.9 30 7.4 21.3 11.3c-5.6 2.5-10.8 2-15.6 6C2.9 19.7.2 25.6 0 27.7c-.3-2.7 1.8-5.2 2.9-9.8 1.2-5.3 2.9-4 8.7-6.2 5.8-2.2 22.7-8.6 36.2-11 13.5-2.5 25.7 3.8 36.1 9.9 28.6.9 31 6.2 32.9 10.5 1 2.4 1.9 7.1 1.3 7.6 0-2.1-.4-4.2-1.3-6.1z" opacity=".5"/> <path fill="#FFF" d="M80.8 13.2s-33.2 0-57.9 3c-3.7-2.1-11-1.3-11-1.3s16-6.1 66.8-3.9c.5 1.2 2.1 2.2 2.1 2.2zM90.7 15.6c4.7-.3 14.1 2 17.1 11.4l-4.8-.9c-3.2-8.4-8.7-8.8-12.2-8.5-5.5.4-9.3 4.9-10 9.4-.4-5.6 4.3-11 9.9-11.4zM80 29.1L32.6 26l13.7 3.7" opacity=".5"/> <path fill="#FFF" d="M110.4 28.3l-7.4-1.5.2 2.2M118.1 31.5l-15.1.4 3.8 1 12.1-1M117.6 28l-7.9-.1 1.9.7 6.5-.2" opacity=".5"/> <ellipse fill="#231F20" cx="44.2" cy="15.2" rx="3.4" ry=".7"/> <ellipse class="car-body" cx="44.2" cy="15.1" rx="3" ry=".5"/> <g> <path fill="#200000" d="M78.7 11.3c-.3 1.3-3.1 1.9-4.4 1.7-1.3-.3-2.2-1.6-1.9-2.9.3-1.3 1.6-2.2 2.9-2 1.2.3 3.7 1.9 3.4 3.2z"/> <path fill="#FFF" d="M73.1 9.2c.3.7.8 1.2 1.6 1.3.8.2 2.3-.1 3.2-.6-.6-.8-1.8-1.4-2.6-1.6-.9-.2-1.8.2-2.2.9z" opacity=".5"/> </g> <path opacity=".7" fill="#FFF" d="M63.1 10.3h7.3l2.4-2.4c-1.4-.7-3.1-1.5-5-2.3l-4.7 4.7zM54 10.4h2.8l6.6-6.6c-.7-.2-1.4-.5-2.1-.7-2.4 2.5-4.9 4.9-7.3 7.3zM54.9 2c-2 0-4.1.2-6.2.6l-5 5c.4 1 .8 1.9 1.3 2.9h4.6l8.2-8.2c-1.1-.2-2.1-.3-2.9-.3z"/> <path fill="#191919" d="M5 28c-.1-.4-.6-.8-1-.8H0c0 .6.1 1.1.3 1.7.8 2.1 2.9 3.3 6.3 4L5 28z"/> <g opacity=".5"> <path fill="#FFF" d="M3.9 27.2c.4 0 .9.3 1 .8l1.6 4.9c.2.1-1.2-5.4-1.2-5.4-.1-.4-.6-.8-1-.8 0 0-4.3.3-4.3.5h3.9z"/> </g> <g class="wheel"> <path fill="#757575" d="M13.5 28.9c0 4 3.3 7.3 7.3 7.3s7.3-3.3 7.3-7.3-3.3-7.3-7.3-7.3-7.3 3.3-7.3 7.3zm1.4 2.2l.9-.1-.8.5c0-.1-.1-.2-.1-.4zm-.3-1c-.1-.4-.1-.8-.1-1.2 0-.4 0-.8.1-1.2l3.1.5.9.7-.9.7-3.1.5zm11.9 1.5l-.8-.6 1.1.2c-.1.1-.2.3-.3.4zm-2.7-2l-.9-.7.9-.7 3.2-.5c.1.4.1.8.1 1.2 0 .4 0 .8-.1 1.2l-3.2-.5zm2.9-2.9l-1.1.2.9-.6c.1.1.2.2.2.4zM15 26.3l.8.6-.9-.1c0-.2.1-.3.1-.5zm2.2-2.6l1.9 2.6.2 1.1-1.1-.2-2.6-1.9c.4-.6.9-1.1 1.6-1.6zm.9-.5c.1-.1.3-.1.4-.2l.2 1-.6-.8zm2.7-.6c.4 0 .8 0 1.1.1l-.5 3.2-.7.9-.7-.9-.5-3.2c.4-.1.9-.1 1.3-.1zm2.1.3c.2.1.3.1.5.2l-.6.9.1-1.1zm3.1 2.4l-2.7 1.9-1.1.2.2-1.1 1.9-2.6c.7.4 1.3 1 1.7 1.6zm-1.7 8.9l-1.9-2.6-.2-1.1 1.1.2 2.6 1.9c-.3.6-.9 1.2-1.6 1.6zm-.9.5c-.1.1-.3.1-.4.2l-.2-1 .6.8zm-2.6.6c-.4 0-.9 0-1.3-.1L20 32l.7-.9.7.9.5 3.2c-.4 0-.7.1-1.1.1zm-2.3-.5c-.1-.1-.3-.1-.4-.2l.6-.8-.2 1zm-3-2.4l2.5-1.8 1.1-.2-.1 1.2-1.8 2.6c-.7-.5-1.2-1.1-1.7-1.8z"/> <path fill="#999" d="M19.1 33.9l-.8-.3 1.1-1.5-.3 1.8zm3.2 0l-.3-1.8 1.1 1.5-.8.3zm-2.6-2.4l.3-1.8-1.8.3 1.5-1.1-1.5-1.1 1.8.3-.3-1.8 1.1 1.5 1.1-1.5-.3 1.8 1.8-.3-1.5 1.1 1.5 1.1-1.8-.3.3 1.8-1.2-1.5-1 1.5zm-3.6-.2l-.3-.8 1.8-.3-1.5 1.1zm9.3 0l-1.5-1.1 1.8.3-.3.8zm-1.5-3.7l1.5-1.1.3.8-1.8.3zm-6.3 0l-1.8-.3.3-.8 1.5 1.1zm1.8-1.8l-1.1-1.5.8-.3.3 1.8zm2.6 0l.3-1.8.8.3-1.1 1.5z"/> </g> <g class="wheel"> <path fill="#757575" d="M84.7 28.9c0 4 3.3 7.3 7.3 7.3s7.3-3.3 7.3-7.3-3.3-7.3-7.3-7.3c-4.1 0-7.3 3.3-7.3 7.3zm1.3 2.2l.9-.1-.8.5c0-.1 0-.2-.1-.4zm-.3-1c-.1-.4-.1-.8-.1-1.2 0-.4 0-.8.1-1.2l3.1.5.9.7-.9.7-3.1.5zm12 1.5l-.9-.6 1.1.2c-.1.1-.1.3-.2.4zm-2.8-2l-.9-.7.9-.7 3.2-.5c.1.4.1.8.1 1.2 0 .4 0 .8-.1 1.2l-3.2-.5zm3-2.9l-1.1.2.9-.6c.1.1.1.2.2.4zm-11.7-.4l.8.6-1-.2c.1-.1.1-.2.2-.4zm2.1-2.6l1.9 2.6.2 1.1-1.1-.2-2.6-1.9c.4-.6 1-1.1 1.6-1.6zm1-.5c.1-.1.3-.1.4-.2l.2 1-.6-.8zm2.7-.6c.4 0 .8 0 1.1.1l-.5 3.2-.7.9-.7-.9-.5-3.2c.4-.1.8-.1 1.3-.1zm2.1.3c.2.1.3.1.5.2l-.7.9.2-1.1zm3.1 2.4l-2.7 1.9-1.1.2.2-1.1 1.9-2.6c.7.4 1.2 1 1.7 1.6zm-1.7 8.9l-1.9-2.6-.2-1.1 1.1.2 2.6 1.9c-.4.6-1 1.2-1.6 1.6zm-1 .5c-.1.1-.3.1-.4.2l-.2-1 .6.8zm-2.5.6c-.4 0-.9 0-1.3-.1l.5-3.1.7-.9.7.9.5 3.2c-.4-.1-.8 0-1.1 0zm-2.3-.5c-.1-.1-.3-.1-.4-.2l.6-.8-.2 1zm-3-2.4l2.5-1.8 1.1-.2-.2 1.1-1.8 2.6c-.6-.4-1.2-1-1.6-1.7z"/> <path fill="#999" d="M90.3 33.9l-.8-.3 1.1-1.5-.3 1.8zm3.2 0l-.3-1.8 1.1 1.5-.8.3zm-2.7-2.4l.3-1.8-1.8.3 1.5-1.1-1.5-1.1 1.8.3-.3-1.8 1.1 1.5 1.1-1.5-.3 1.8 1.8-.3-1.5 1.1 1.5 1.1-1.8-.3.3 1.8-1.1-1.5-1.1 1.5zm-3.6-.2l-.3-.8 1.8-.3-1.5 1.1zm9.3 0L95 30.2l1.8.3-.3.8zM95 27.6l1.5-1.1.3.8-1.8.3zm-6.3 0l-1.8-.3.3-.8 1.5 1.1zm1.9-1.8l-1.1-1.5.8-.3.3 1.8zm2.6 0l.3-1.8.8.3-1.1 1.5z"/> </g> </svg>