<svg xmlns="http://www.w3.org/2000/svg" viewBox="0 0 118.2 38.4" class="car convertible">
    <ellipse opacity=".4" cx="59.1" cy="36.4" rx="59.1" ry="2"/>
    <ellipse transform="rotate(14.193 4.347 18.82)" fill="#D60606" cx="4.3" cy="18.8" rx="1.2" ry="3.5"/>
    <path fill="#070000"
          d="M31.9 8.3c.7 1.1.3 2.6-.8 3.2-1.1.7-2.6.3-3.2-.8l-1.2-2c-.7-1.1-.3-2.6.8-3.2 1.1-.7 2.6-.3 3.2.8l1.2 2zM52.6 9.6c.7 1.1.3 2.6-.8 3.2-1.1.7-2.6.3-3.2-.8l-1.2-2c-.7-1.1-.3-2.6.8-3.2 1.1-.7 2.6-.3 3.2.8l1.2 2z"/>
    <path class="car-body"
          d="M116.4 30.6c-.4-.1-.3-1.2-.3-2.9 1.2.5 2-6.9.9-9.3-1.8-4.3-17.9-8.9-34.8-8.9C75.1 5.3 67.1 1.2 60.8 0c-.3-.1-2.4.5.5 2 5.1 2.6 15.6 7.5 7 7.5-30.4 0-36.8-.1-37.6-1.6-3.1-5-13 1.1-17.6 2.8-5.8 2.2-9.5 3.2-8.7 6.2.6 2.4-.1 3.5-1.2 3.9-1.3.4.3 10 3.1 10.7 2.1.5 5.5 1.1 8.6 1.4 4.8.4 52.5.3 68-.1 12.9-.5 39.9-.1 33.5-2.2z"/>
    <path fill="#540C16"
          d="M116.4 30.6c-.2-.1-.3-.4-.3-.9-6.4.7-23.3.6-32.7.9-15.8.5-64.6.6-69.5.1-3.2-.3-6.7-.8-8.8-1.4-.3-.1-.7-.3-1-.6.6 1.4 1.4 2.6 2.2 2.8 2.1.5 5.5 1.1 8.6 1.4 4.8.4 52.5.3 68-.1 12.9-.5 39.9-.1 33.5-2.2z"/>
    <path fill="#191919" d="M116.1 22.4c0 1.7-.1 2.8.3 2.9.4.1.6.2.8.3.4-1.8.5-4.5.2-6.2-.3 1.8-.8 3.2-1.3 3z"/>
    <g fill="#191919">
        <path d="M22.7 16.8c6.1 0 11 4.9 11 11 0 .3.1 2.7.1 5.4-9.2 0-16.5-.1-19-.3-1.2-.1-2.3-.2-3.3-.3 0-2.4.1-4.3.1-4.7.1-6.2 5-11.1 11.1-11.1zM90.2 16.8c6.1 0 11 4.9 11 11 0 .3 0 2.4.1 4.7-5.9.2-12.5 0-18.4.2-1 0-2.3.1-3.8.1 0-2.5.1-4.6.1-5-.1-6.1 4.9-11 11-11z"/>
    </g>
    <circle fill="#070000" cx="90.3" cy="28" r="9.4"/>
    <path fill="#262626"
          d="M90.3 19.9c-4.8 0-8.8 3.8-9 8.6V28c0-5 4.1-9.1 9.1-9.1s9.1 4.1 9.1 9.1v.5c-.4-4.8-4.4-8.6-9.2-8.6z"/>
    <path fill="#262626"
          d="M90.3 35.3c3.9 0 7.1-3.1 7.3-6.9v.4c0 4-3.3 7.3-7.3 7.3S83 32.8 83 28.8v-.4c.2 3.8 3.4 6.9 7.3 6.9z"/>
    <circle fill="#070000" cx="22.3" cy="28" r="9.4"/>
    <path fill="#262626"
          d="M22.3 19.9c-4.8 0-8.8 3.8-9 8.6V28c0-5 4.1-9.1 9.1-9.1s9.1 4.1 9.1 9.1v.5c-.4-4.8-4.3-8.6-9.2-8.6z"/>
    <path fill="#262626"
          d="M22.3 35.3c3.9 0 7.1-3.1 7.3-6.9v.4c0 4-3.3 7.3-7.3 7.3S15 32.8 15 28.8v-.4c.2 3.8 3.4 6.9 7.3 6.9z"/>
    <path fill="#2B2B2B"
          d="M109.4 27.5l1.4-2.5c.3-.4.8-.8 1.1-.8h3.7c.6 0 1.1 3.2.6 3.2h-6.8zM104.5 30.7l1.9-2c.3-.4.8-.6 1.2-.6l8-.3c.6 0 .6 2.6.1 2.6l-11.2.3z"/>
    <path fill="#80C2DC" d="M60.8.1C68.4 1.8 76 5.8 82.3 9.5h-2.7C71 3.1 60 .7 60.8.1z"/>
    <path fill="#231F20"
          d="M50.5 31.4h23.8c2.5 0 2.6-3.3 2.6-7.8 0-1.2 0-2.4.1-3.7.3-6.3.3-7.4-1.6-10.6l-.1.1c1.9 3.1 1.9 4.2 1.6 10.5-.1 1.3-.1 2.5-.1 3.7 0 4.4-.1 7.7-2.5 7.7H50.5c-2.7 0-5.3-2.1-7.6-6.3-2-3.6-3.1-7.7-3.4-8.8-.6-2.2-.4-3.9.4-5 .8-1 2.2-1.5 4-1.5v-.3c-1.9 0-3.3.6-4.1 1.6-.9 1.2-1 2.9-.5 5.1.3 1.2 1.4 5.2 3.5 8.8 2.3 4.3 4.9 6.5 7.7 6.5z"/>
    <path fill="#FFF" d="M97.8 13.2c-32.6 0-51.2-.5-73.4 2.2-3.7-2.1-11-1.3-11-1.3 43.5-6.8 84.4-.9 84.4-.9z"
          opacity=".5"/>
    <g opacity=".5">
        <path fill="#FFF"
              d="M89 14.7c4.7-.3 14.1 2 17.1 11.4l-4.8-.9c-3.2-8.4-8.7-8.8-12.2-8.5-5.5.4-9.3 4.9-10 9.4-.4-5.6 4.4-11 9.9-11.4z"/>
    </g>
    <g opacity=".5">
        <path fill="#FFF" d="M78.4 26.5l-47-8.1 11.4 3.7"/>
    </g>
    <g opacity=".5">
        <path fill="#FFF" d="M108.8 27.4l-7.5-1.5.3 2.2"/>
    </g>
    <g opacity=".5">
        <path fill="#FFF" d="M116.4 30.6l-15.1.4 3.8.9 12.1-.9"/>
    </g>
    <ellipse fill="#231F20" cx="43.1" cy="14.3" rx="3.4" ry=".7"/>
    <ellipse fill="#540C16" cx="43.1" cy="14.1" rx="3" ry=".5"/>
    <g>
        <path fill="#200000"
              d="M77 10.4c-.3 1.3-3.1 1.9-4.4 1.7-1.3-.3-2.2-1.6-1.9-2.9.3-1.3 1.6-2.2 2.9-2 1.3.2 3.7 1.8 3.4 3.2z"/>
        <path fill="#FFF" d="M71.4 8.3c.3.7.8 1.2 1.6 1.3.8.2 2.3-.1 3.2-.6-.6-.8-1.8-1.4-2.6-1.6-.9-.2-1.7.2-2.2.9z"
              opacity=".5"/>
    </g>
    <g opacity=".5" fill="#FFF">
        <path d="M60.4 1.5c.2-.2.6-.3.8-.3C66.9 2.3 72.5 6 79.4 9.9c25.7 2.4 33.2 6.2 36 10.4.8 1.2.9 4.2 1.6 5.9.3-1.8.8-5.2-.1-7.8-1.4-4-16.9-8.9-34.7-9C75.1 5.3 67.1 1.2 60.8 0c-.3-.1-1.9.4-.4 1.5zM3.7 21.9c1.3-.4 2.3-1.6 2.2-4.2-.1-3.1 3.8-4.1 9.9-6.4 4.7-1.7 9.1-4.3 14.9-2.1 5 1.5 9.1.8 37.7.6 2.2 0 3-.4 3-.9-.4.3-1.3.5-3.1.5-30.4 0-36.8-.1-37.6-1.6-3.1-5-13 1.1-17.6 2.8-5.8 2.2-9.5 3.2-8.7 6.2.6 2.4-.1 3.5-1.2 3.9-.4.1-.5 1.4-.4 2.9.3-.9.6-1.6.9-1.7z"/>
    </g>
    <path fill="#540C16"
          d="M116 20.8c.7 1 .4 1.8-.7 1.8h-6c-1 0-2.2-.8-2.6-1.8l-.4-1c-.4-.9.1-1.6 1-1.6h5.2c.9 0 2.2.7 2.8 1.6l.7 1z"/>
    <path fill="#FFF"
          d="M109.1 22.4c-.9 0-1.9-.7-2.2-1.6l-.4-1c-.1-.3-.1-.6 0-.8.1-.2.4-.3.7-.3h5.2c.8 0 1.9.6 2.4 1.4l.7 1c.3.5.3.8.2 1-.1.2-.4.2-.6.2h-6zM110 29.3c.4-.5.3-.8-.1-.8h-1.5c-.5 0-1.1.4-1.5.8-.4.5-.3.8.1.8h1.5c.5.1 1.2-.3 1.5-.8z"/>
    <path fill="#DEFCFF"
          d="M115.7 22c0-.2-.1-.5-.3-.8l-.7-1c-.5-.8-1.6-1.4-2.4-1.4h-5.2c-.3 0-.6.1-.7.3-.1.2-.1.4 0 .7 3.5-.4 7-.2 9.3 2.2zM107.2 21.4c.5.6 1.2 1 1.9 1h3.7c-1.8-.5-3.7-.8-5.6-1z"/>
    <g class="wheel">
        <path fill="#F9EFF0"
              d="M83 28c0 4 3.3 7.3 7.3 7.3s7.3-3.3 7.3-7.3-3.3-7.3-7.3-7.3S83 24 83 28zm1.4 2.2l.9-.1-.8.5c0-.2-.1-.3-.1-.4zm-.3-1c-.1-.4-.1-.8-.1-1.2 0-.4 0-.8.1-1.2l3.1.5.9.7-.9.7-3.1.5zM96 30.7l-.8-.7 1.1.2c-.1.2-.2.3-.3.5zm-2.7-2l-1-.7.9-.7 3.2-.5c.1.4.1.8.1 1.2 0 .4 0 .8-.1 1.2l-3.1-.5zm2.9-2.9l-1.1.2.9-.6c.1.1.2.2.2.4zm-11.7-.4l.8.6-.9-.1c0-.2.1-.4.1-.5zm2.2-2.6l1.9 2.6.2 1.1-1.1-.2-2.7-1.8c.5-.7 1-1.3 1.7-1.7zm.9-.6c.1-.1.3-.1.4-.2l.2 1-.6-.8zm2.7-.6c.4 0 .8 0 1.1.1l-.5 3.2-.7.9-.7-.9-.5-3.1c.4-.1.9-.2 1.3-.2zm2.1.4c.2.1.3.1.5.2l-.6.8.1-1zm3.1 2.4l-2.7 1.9-1.1.2.2-1.1 1.9-2.6c.7.3 1.3.9 1.7 1.6zm-1.7 8.9l-1.9-2.6-.2-1.1 1.1.2 2.6 1.9c-.4.5-.9 1.1-1.6 1.6zm-.9.5c-.1.1-.3.1-.4.2l-.2-1 .6.8zm-2.6.5c-.4 0-.9 0-1.3-.1l.5-3.1.7-.9.7.9.5 3.2h-1.1zm-2.3-.4c-.1-.1-.3-.1-.4-.2l.6-.8-.2 1zm-3-2.4l2.5-1.8 1.1-.2-.2 1.1-1.8 2.6c-.6-.5-1.1-1-1.6-1.7z"/>
        <path fill="#999"
              d="M88.6 33l-.8-.3 1.1-1.5-.3 1.8zm3.2 0l-.3-1.8 1.1 1.5-.8.3zm-2.6-2.5l.3-1.8-1.8.3 1.5-1.1-1.5-1.1 1.8.3-.3-1.8 1.1 1.5 1.1-1.5-.4 1.9 1.8-.3-1.5 1.1 1.5 1.1-1.8-.3.3 1.8-1.1-1.5-1 1.4zm-3.6-.1l-.3-.8 1.8-.3-1.5 1.1zm9.3 0l-1.5-1.1 1.8.3-.3.8zm-1.5-3.7l1.5-1.1.3.8-1.8.3zm-6.3 0l-1.8-.3.3-.8 1.5 1.1zm1.8-1.9l-1.1-1.5.8-.3.3 1.8zm2.6 0l.3-1.8.8.3-1.1 1.5z"/>
    </g>
    <g class="wheel">
        <path fill="#F9EFF0"
              d="M15 28c0 4 3.3 7.3 7.3 7.3s7.3-3.3 7.3-7.3-3.3-7.3-7.3-7.3S15 24 15 28zm1.4 2.2l.9-.1-.8.5c0-.2-.1-.3-.1-.4zm-.3-1c-.1-.4-.1-.8-.1-1.2 0-.4 0-.8.1-1.2l3.1.5.9.7-.9.7-3.1.5zm12 1.5l-.9-.7 1.1.2c-.1.2-.2.3-.2.5zm-2.8-2l-.9-.7.9-.7 3.2-.5c.1.4.1.8.1 1.2 0 .4 0 .8-.1 1.2l-3.2-.5zm3-2.9l-1.1.2.9-.6c0 .1.1.2.2.4zm-11.8-.4l.8.6-.9-.1c0-.2.1-.4.1-.5zm2.2-2.6l1.9 2.6.2 1.1-1.1-.2-2.7-1.8c.5-.7 1-1.3 1.7-1.7zm.9-.6c.1-.1.3-.1.4-.2l.2 1-.6-.8zm2.7-.6c.4 0 .8 0 1.1.1l-.5 3.2-.7.9-.7-.9-.5-3.2c.5 0 .9-.1 1.3-.1zm2.2.4c.2.1.3.1.5.2l-.7.8.2-1zm3 2.4l-2.7 1.9-1.1.2.2-1.1 1.9-2.6c.7.3 1.3.9 1.7 1.6zm-1.7 8.9l-1.9-2.6-.2-1.1 1.1.2 2.6 1.9c-.3.5-.9 1.1-1.6 1.6zm-.9.5c-.1.1-.3.1-.4.2l-.2-1 .6.8zm-2.6.5c-.4 0-.9 0-1.3-.1l.5-3.1.7-.9.7.9.5 3.2h-1.1zm-2.3-.4c-.1-.1-.3-.1-.4-.2l.6-.8-.2 1zm-2.9-2.4l2.5-1.8 1.1-.2-.2 1.1-1.8 2.6c-.6-.5-1.2-1-1.6-1.7z"/>
        <path fill="#999"
              d="M20.6 33l-.8-.3 1.1-1.5-.3 1.8zm3.2 0l-.3-1.8 1.1 1.5-.8.3zm-2.6-2.5l.3-1.8-1.8.3 1.5-1.1-1.5-1.1 1.8.3-.3-1.8 1.1 1.5 1.1-1.5-.4 1.9 1.8-.3-1.5 1.1 1.5 1.1-1.8-.3.3 1.8-1.1-1.5-1 1.4zm-3.6-.1l-.3-.8 1.8-.3-1.5 1.1zm9.3 0l-1.5-1.1 1.8.3-.3.8zm-1.5-3.7l1.5-1.1.3.8-1.8.3zm-6.3 0l-1.8-.3.3-.8 1.5 1.1zm1.8-1.9l-1.1-1.5.8-.3.3 1.8zm2.6 0l.3-1.8.8.3-1.1 1.5z"/>
    </g>
</svg>