<svg xmlns="http://www.w3.org/2000/svg" viewBox="0 0 119.7 36.6" class="car corvet"> <ellipse opacity=".4" cx="60.6" cy="34.7" rx="59.1" ry="2"/> <path class="car-body" d="M4.9 7.4s-3.6 3.4-3.6 6.4c0 .8.3 4.4-.2 5.2-.5.8-1.6 1.6-.8 3.3-.3 2-.2 4.5 2.5 5.7 2.7 1.1 12.6 2.3 30.9 2.6 18.3.3 52.1.3 52.9.4.8.1 23.4.5 25.9.2s4.4 0 4.3-1.6c-.1-1.5-.7-2.8-1.3-5.4-.1-.2-.6-.9-1.5-1.9 1.6 0-8-6.7-10.5-7.9-6.3-3-9.5-4-23.3-4.8-3.3-.2-3.6 0-3.6 0-2-.4-3.4-.8-4.7-1.6C69.8 6.9 53.5-.1 45.6.4c-14.6.9-29.5 6-31.9 6-1.7-.1-9.7-1.9-8.8 1z"/> <path fill="#341115" d="M112.5 28.6c-2.5.3-25.1-.1-25.9-.2-.8-.1-34.6-.1-52.9-.4-18.3-.3-26.7-1.4-29.4-2.5-1.6-.7-3.8-1.9-4-3.2C0 24.4.1 26.8 2.8 28c2.7 1.1 12.6 2.3 30.9 2.6 18.3.3 52.1.3 52.9.4.8.1 23.4.5 25.9.2s4.4 0 4.3-1.6c0-.6-.1-1.1-.3-1.7-.6.6-2.2.5-4 .7z"/> <path fill="#200000" d="M91.7 15.9c-5.9 0-10.7 4.8-10.7 10.7 0 1.5.3 2.9.9 4.2 2.8 0 4.5 0 4.7.1.5.1 8 .2 14.8.3.7-1.4 1-2.9 1-4.6.1-5.9-4.8-10.7-10.7-10.7z"/> <path fill="#341115" d="M37.3 22.2c-1.6-3.8-5.8-8.6-14.2-8.6-5.9 0-12.5 5.9-11.4 13.6.2 1.3 1.9 2.4 1.9 2.4 9.8.8 62.6.1 67.5-1.3-18.2-1-41.9-1.6-43.8-6.1z"/> <path fill="#200000" d="M34.4 26c0-5.9-4.8-10.7-10.7-10.7C17.8 15.2 13 20 13 26c0 1.3.2 2.5.7 3.7 4.9.4 11.5.7 19.8.9.6-1.5.9-3 .9-4.6z"/> <path fill="#341115" d="M76.5 9.5c-1.7-.4-3.5-.9-4.7-1.6C69.7 6.8 52.1-.5 44.3 0 29.6 1 15.9 6.3 13.6 6.3c-.3 0 17.1-2 31.2 3 7 2.5 28.7.9 31.7.2z"/> <path fill="#200000" d="M63.2 10.5s-2.5-2.7-12.8-6.3c-4.2-1.5-6.3-1.4-11-1.2-12.3 3-5.7 3.6 2 6.3 7.9 2.8 23.7.9 21.8 1.2z"/> <path fill="#80C2DC" d="M50.2 3.6c-3.9-1.1-7-1.2-10.8-.6.5 2.1 1.3 4.2 2 6.3.1 0 .2.1.3.1 8.7 2.9 23.4 1.1 23.1 1.1 0 0-3.6-3.7-14.6-6.9z"/> <path opacity=".7" fill="#FFF" d="M41.3 9c-.2-.5-.4-1-.5-1.6l4.7-4.7c.6.1 1.2.1 1.8.2l-6 6.1zm11.8-4.5c-.9-.3-1.8-.6-2.8-.9-.3-.1-.6-.2-.9-.2L43 9.8c1.3.3 2.7.6 4.1.8l6-6.1zM56 5.6c-.3-.1-.7-.3-1.1-.4l-5.7 5.7c.5 0 .9.1 1.4.1L56 5.6zm.4 5.5c4.9-.1 8.6-.5 8.4-.5 0 0-1.3-1.4-4.8-3.1l-3.6 3.6zm2-4.5c-.2-.1-.5-.2-.7-.3l-4.8 4.8h1l4.5-4.5z"/> <path fill="#80C2DC" d="M71.4 10.1c2.5-.1 4.4-.4 5.1-.6-1.7-.4-3.5-.9-4.7-1.6-1.7-1-13.6-6-22-7.3 11.6 3.7 21.6 9.5 21.6 9.5z"/> <path fill="#EA454B" d="M81.6 16.3c-2 1.7-5.1 3.1-7 3L38.4 18c-1.9-.1 34.8.4 37.4-.5 1.1-.3 2.6-1.1 4.2-3 1.1-1.3-36.4-2.8-34.5-2.8 0 0 25.2-.2 36.2 1.3 1.9.3 1.9 1.6-.1 3.3z"/> <path fill="#341115" d="M79.3 14.1c-.2 0-.3 0-.5-.1.5.3.3 1-.7 1.9-.9.8-3.6 1.6-4.7 1.9.4.1 2.2-.1 2.9-.2 1.1-.3 2-.7 2.9-1.5 1.2-1 1.3-1.8.1-2z"/> <path fill="#EA454B" d="M6.9 15.5L3 14.8l2.9 1c.7.2 1.5 1.4 1.8 2.5l.7 2.7c.3 1.2-.2 2.2-.9 2.1l-4.3-.9 4.9 1.5c2.4.5 2.4-.7 2.1-2l-.7-3.2c-.4-1.4-1.5-2.7-2.6-3z"/> <path fill="#341115" d="M6 15.5l-3-.7 2 .9c.7.2 1.5 1.4 1.8 2.5l.6 2.7c.3 1.2 0 2-.7 1.9l-3.6-.7 4.8 1.5c1.1.3 1.7-.7 1.4-2l-.7-3.2C8.2 17 7.1 15.7 6 15.5zM1.3 12.9l2.4.3c1.4.2 3.3-.9 4.3-2.4s.6-2.9-.8-3.1l-2.4-.3s-2.9 2.8-3.5 5.5z"/> <path fill="#F43B3B" d="M6.1 7.8l-1.4-.2c-.6.5-2.8 2.7-3.2 5l1.4.2c1.4.2 3.3-.8 4.2-2.2.8-1.4.4-2.7-1-2.8z"/> <path fill="#D60606" d="M6.7 9.8c0-1-.9-1.8-2.2-2.1-.2.2-.4.4-.6.7 1 .1 1.8.7 1.8 1.5 0 .9-1 1.7-2.3 1.7-.6 0-1.1-.1-1.5-.3-.1.3-.2.5-.3.8.5.2 1.1.3 1.8.3 1.8-.2 3.3-1.3 3.3-2.6z"/> <path fill="#80C2DC" d="M14.2 6.2c-.4 0-.7.1-.6.1.1 0 .3 0 .6-.1z"/> <path fill="#341115" d="M116.4 27.7c-.2-.9-.6-2-1-3.6-.1-.2-.6-.9-1.5-1.9h-3.1c-1 0-1.5.8-1 1.9l.8 1.8c.5 1 1.7 1.9 2.7 1.9h3.1z"/> <g opacity=".5"> <path fill="#FFF" d="M71.7 8c-2-1.2-19.6-8.5-27.4-8-13.7.9-26.5 5.6-30.1 6.2.8 0 2.3-.2 4.3-.2 6-1.2 21.3-5.4 28.7-5 4.7.3 21.3 8.6 22.9 9.2 3.1-.2 5.5-.5 6.4-.7-1.8-.3-3.6-.9-4.8-1.5z"/> </g> <g> <path fill="#FFF" d="M113.9 22.2c1.6 0-8-6.7-10.5-7.9-6.3-3-9.5-4-23.3-4.8-3.3-.2-3.6 0-3.6 0-3 .7-27.3 3.3-34.2.8-12.4-4.3-24.6-4.4-28-4.1-.3.1-.5.1-.7.1C12 6.3 4 4.5 4.9 7.4h-.1s-3 2.7-3.5 5.5h.1c-.1.3-.1.6-.1.9 0 .8.3 4.4-.2 5.2-.5.8-1.6 1.6-.8 3.3-.1.2 1.6 2 3.2 2.3-3.6-2-1.7-3.3-1.6-8.5 0-3 3.6-6.4 3.6-6.4-.9-2.9 7-1.1 8.6-1.1.2 0 .4 0 .7-.1 3.4-.3 13.9-2 26.1 2.3 6.9 2.5 32.7 1.7 35.7 1 0 0 .3-.2 3.6 0 13.8.8 16.9 1.8 23.1 4.8 1.5.8 5.7 3.6 8.3 5.6h2.3z" opacity=".5"/> </g> <path fill="#200000" d="M65.3 9.2c0 1-2 1.9-3.1 1.9-1 0-1.9-.8-1.9-1.9s.8-1.9 1.9-1.9c1 0 3.1.9 3.1 1.9z"/> <g opacity=".5"> <path fill="#FFF" d="M60.7 8.5c.3.5.8.7 1.4.7.6 0 1.7-.4 2.3-.9-.6-.5-1.6-.8-2.2-.8-.6 0-1.2.4-1.5 1z"/> </g> <g> <circle fill="#070000" cx="23.8" cy="26" r="9.7"/> <path fill="#262626" d="M23.8 17.7c5 0 9 3.9 9.3 8.8V26c0-5.2-4.2-9.3-9.3-9.3-5.2 0-9.3 4.2-9.3 9.3v.5c.2-4.9 4.3-8.8 9.3-8.8zM23.8 33.6c-4 0-7.3-3.2-7.5-7.1v.4c0 4.2 3.4 7.6 7.6 7.6 4.2 0 7.6-3.4 7.6-7.6v-.4c-.4 3.9-3.7 7.1-7.7 7.1z"/> </g> <g> <circle fill="#070000" cx="91.8" cy="26" r="9.7"/> <path fill="#262626" d="M91.8 17.7c5 0 9 3.9 9.3 8.8V26c0-5.2-4.2-9.3-9.3-9.3-5.2 0-9.3 4.2-9.3 9.3v.5c.3-4.9 4.3-8.8 9.3-8.8zM91.8 33.6c-4 0-7.3-3.2-7.5-7.1v.4c0 4.2 3.4 7.6 7.6 7.6 4.2 0 7.6-3.4 7.6-7.6v-.4c-.4 3.9-3.7 7.1-7.7 7.1z"/> </g> <g opacity=".5"> <path fill="#FFF" d="M37.3 22.2c-1.6-3.8-5.8-10.9-18.5-9.3 10.1-2 16 1.5 19.8 8.4 2.3 4.2 24.1 4.5 42.5 7.1-9.4.1-41.9-1.7-43.8-6.2z"/> </g> <path fill="#341115" d="M79.9 28.3h.1c-8.7-.5-18.7-.9-27-1.7 8.1.8 18.1 1.2 26.9 1.7z"/> <g opacity=".5"> <path fill="#FFF" d="M11.7 26.9c-.8-7.5 5.7-13.2 11.5-13.2h1.3c-.8-.1-1.5-.1-2.4-.1-5.8 0-12.3 5.7-11.5 13.2.3 0 .7.1 1.1.1z"/> </g> <g opacity=".5"> <path fill="#FFF" d="M91.7 15.9c5.8 0 10.5 4.6 10.7 10.4v-.6c0-5.9-4.8-10.7-10.7-10.7S81 19.7 81 25.7v.5c.3-5.8 4.9-10.3 10.7-10.3z"/> </g> <g class="wheel"> <path fill="#DCDFE2" d="M91.8 18.5c-4.1 0-7.5 3.4-7.5 7.5s3.4 7.5 7.5 7.5 7.5-3.4 7.5-7.5-3.4-7.5-7.5-7.5zm6 10.2l-.8-.6.9.2c0 .1-.1.3-.1.4zm-2.8-2l-1-.7 1-.7 3.2-.5c.1.4.1.8.1 1.2 0 .4 0 .8-.1 1.2l-3.2-.5zm-9.3 1.6l1.1-.2-.9.7c-.1-.2-.1-.3-.2-.5zm-.3-1c-.1-.4-.1-.8-.1-1.2 0-.4 0-.8.1-1.2l3.3.5 1 .7-1 .7-3.3.5zm.5-4l.9.7-1.1-.2c0-.2.1-.4.2-.5zm12 .5l-1 .2.8-.6c.1.1.2.2.2.4zm-.7-1.4l-2.6 1.9-1.2.2.2-1.2 1.9-2.6c.7.4 1.3 1 1.7 1.7zM94 20.9l.2-1c.1.1.3.1.4.2l-.6.8zm-.9-1.3l-.5 3.3-.7 1-.7-1-.5-3.3c.4-.1.8-.1 1.1-.1.5 0 .9 0 1.3.1zm-3.3 1.3l-.6-.9c.2-.1.3-.1.5-.2l.1 1.1zm-1.6-.3l2 2.7.2 1.2-1.2-.2-2.7-2c.4-.7 1-1.3 1.7-1.7zm-1.8 9.1l2.7-2 1.2-.2-.2 1.2-2 2.7c-.6-.4-1.2-1-1.7-1.7zm3.4 1.4l-.2 1c-.2-.1-.3-.1-.5-.2l.7-.8zm.9 1.3l.5-3.3.7-1 .7 1 .5 3.2c-.4.1-.9.1-1.3.1-.4.2-.8.1-1.1 0zm3.3-1.3l.6.8c-.1.1-.3.1-.4.2l-.2-1zm1.5.3l-1.9-2.6-.2-1.2 1.2.2 2.6 1.9c-.4.6-1 1.2-1.7 1.7z"/> <path fill="#CBCFD1" d="M93.2 29.3l1.1 1.5-.8.3-.3-1.8zm-3.8 1.5l1.1-1.5-.3 1.9-.8-.4zm2.5-3.6l-1.1 1.5.3-1.8-1.8.3 1.5-1.1-1.5-1.1 1.8.3-.3-1.8 1.1 1.5 1.1-1.5-.3 1.8 1.8-.3-1.5 1 1.5 1.1-1.8-.3.3 1.8-1.1-1.4zm3.2.2l1.9.3-.3.8-1.6-1.1zm-8.3.3l1.9-.3-1.5 1.1-.4-.8zm0-3.3l.3-.8 1.5 1.1-1.8-.3zm9.9-.8l.3.8-1.9.3 1.6-1.1zm-3.2-2.7l.8.3-1.1 1.5.3-1.8zm-4.1.3l.8-.3.3 1.9-1.1-1.6z"/> </g> <g class="wheel"> <path fill="#DCDFE2" d="M23.8 18.5c-4.1 0-7.5 3.4-7.5 7.5s3.4 7.5 7.5 7.5 7.5-3.4 7.5-7.5-3.4-7.5-7.5-7.5zm5.9 10.2l-.8-.6.9.2c0 .1 0 .3-.1.4zm-2.7-2l-1-.7 1-.7 3.2-.5c.1.4.1.8.1 1.2 0 .4 0 .8-.1 1.2l-3.2-.5zm-9.3 1.6l1.1-.2-.9.7c-.1-.2-.2-.3-.2-.5zm-.3-1c-.1-.4-.1-.8-.1-1.2 0-.4 0-.8.1-1.2l3.3.5 1 .7-1 .7-3.3.5zm.4-4l.9.7-1.1-.2c.1-.2.2-.4.2-.5zm12.1.5l-1 .2.8-.6c.1.1.1.2.2.4zm-.7-1.4l-2.6 1.9-1.2.2.2-1.2 1.9-2.6c.7.4 1.2 1 1.7 1.7zM26 20.9l.2-1c.1.1.3.1.4.2l-.6.8zm-.9-1.3l-.5 3.3-.7 1-.7-1-.5-3.3c.4-.1.8-.1 1.1-.1.4 0 .8 0 1.3.1zm-3.4 1.3l-.6-.9c.2-.1.3-.1.5-.2l.1 1.1zm-1.6-.3l2 2.7.2 1.2-1.2-.2-2.7-2c.5-.7 1-1.3 1.7-1.7zm-1.7 9.1l2.7-2 1.2-.2-.2 1.2-2 2.7c-.6-.4-1.2-1-1.7-1.7zm3.3 1.4l-.2 1c-.2-.1-.3-.1-.5-.2l.7-.8zm.9 1.3l.5-3.3.7-1 .7 1 .5 3.2c-.4.1-.9.1-1.3.1-.3.2-.7.1-1.1 0zm3.4-1.3l.6.8c-.1.1-.3.1-.4.2l-.2-1zm1.5.3l-1.9-2.6-.2-1.2 1.2.2 2.6 1.9c-.5.6-1 1.2-1.7 1.7z"/> <path fill="#CBCFD1" d="M25.2 29.3l1.1 1.5-.8.3-.3-1.8zm-3.8 1.5l1.1-1.5-.3 1.9-.8-.4zm2.4-3.6l-1.1 1.5.3-1.8-1.8.3 1.5-1.1-1.5-1.1 1.8.3-.3-1.8 1.1 1.5 1.1-1.5-.3 1.8 1.8-.3-1.4 1 1.5 1.1-1.8-.3.3 1.8-1.2-1.4zm3.3.2l1.9.3-.3.8-1.6-1.1zm-8.4.3l1.9-.3-1.5 1.1-.4-.8zm0-3.3l.3-.8 1.5 1.1-1.8-.3zm9.9-.8l.3.8-1.9.3 1.6-1.1zm-3.1-2.7l.8.3-1.1 1.5.3-1.8zm-4.1.3l.8-.3.3 1.9-1.1-1.6z"/> </g> </svg>