<svg xmlns="http://www.w3.org/2000/svg" viewBox="0 0 119.7 40.3" class="car porche"><ellipse opacity=".4" cx="60.6" cy="38.3" rx="59.1" ry="2"/><path fill="#070000" d="M61.9 15.1c-.2.3-.5.4-.8.3-.3-.2-.4-.5-.3-.8l3.1-6.5c.2-.3.5-.4.8-.3.3.2.4.5.3.8l-3.1 6.5z"/><path fill="#262626" d="M57.3 1.4c0-.1-.1-.1-.2-.2-2-1.2-23.6-3.9-38.1 7 5-.8 6.5-2 8.4 1 1.8.8 4.7 1.8 8.6 1.5 0-6.2 12.2-9.6 21.2-7.6l.1-1.7z"/><ellipse transform="rotate(14.2 2.165 20.05)" fill="#D60606" cx="2.2" cy="20" rx="1.2" ry="3.5"/><path fill="#070000" d="M28.1 9.7c.7 1.1.3 2.6-.8 3.2-1.1.7-2.6.3-3.2-.8l-1.2-2c-.7-1.1-.3-2.6.8-3.2 1.1-.7 2.6-.3 3.2.8l1.2 2zM48.8 11c.7 1.1.3 2.6-.8 3.2-1.1.7-2.6.3-3.2-.8l-1.2-2c-.7-1.1-.3-2.6.8-3.2 1.1-.7 2.6-.3 3.2.8l1.2 2zM68.5 12.7c-.8 1-2.3 1.3-3.3.5s-1.3-2.3-.5-3.3L66.1 8c.8-1 2.3-1.3 3.3-.5s1.3 2.3.5 3.3l-1.4 1.9z"/><path class="car-body" d="M115.1 32s-.1-1-.2-2.7c.6-.9-1.3-5.1-2.5-7.5-2.2-4.3-16.2-10.9-33.1-10.9C71.7 6.7 63.4 2.7 57 1.4c-.4-.1-2.3.5.6 2 5.3 2.6 16.3 7.5 7.6 7.5-30.4 0-36.8-.1-37.7-1.6-3.6-5-13 1.1-17.4 2.8C4.5 14.3 1 15.2 2 18.3c.8 2.4.2 3.5-.9 3.9-1.2.4-1.5 7.9-.4 8.8 1.6 1.4 10 3 13.1 3.3 4.9.4 52.6.3 68-.1 12.8-.4 39.8-.1 33.3-2.2z"/><path fill="#191919" d="M115.8 32c-.2-.1.3-1.2-.7-1.8-2.9.3-4.7-.1-10.8.2-1.3.1-6.8-5.6-8.1-5.6-6.3.3-12.1 7.1-16.4 7.3-1.4 0-3.1.1-5 .1-8 .2-19.8.2-31.1.3-4.4 0-10.6-7.8-14.6-7.8-10.5 0-17 7.7-18.9 7.5-3.2-.3.2-4.4-1.9-5C8 27.1.3 26 0 25.7c-.5 6.5 1.7 7 2.6 7.3 2.1.5 5.5 1.1 8.6 1.4 4.8.4 52.5.3 68-.1 12.9-.3 42.9-.2 36.6-2.3zM111 23.8c.9 1.7 2.8 4.8 3.2 4.8.4 0 .7 0 .8.1-.3-1.9-1.7-5.2-2.6-6.7-.1 1.3-1.4 1.8-1.4 1.8z"/><g fill="#191919"><path d="M18.9 18.2c6.1 0 11 4.9 11 11 0 .3.1 2.7.1 5.4-9.2 0-16.5-.1-19-.3-1.2-.1-2.3-.2-3.3-.3 0-2.4.1-4.3.1-4.7.1-6.2 5-11.1 11.1-11.1zM86.4 18.2c6.1 0 11 4.9 11 11 0 .3 0 2.4.1 4.7-5.9.2-12.5 0-18.4.2-1 0-2.3.1-3.8.1 0-2.5.1-4.6.1-5-.1-6.1 4.9-11 11-11z"/></g><circle fill="#070000" cx="86.5" cy="29.4" r="9.4"/><path fill="#262626" d="M86.5 21.3c-4.8 0-8.8 3.8-9 8.6v-.5c0-5 4.1-9.1 9.1-9.1s9.1 4.1 9.1 9.1v.5c-.4-4.8-4.4-8.6-9.2-8.6z"/><path fill="#262626" d="M86.5 36.7c3.9 0 7.1-3.1 7.3-6.9v.4c0 4-3.3 7.3-7.3 7.3s-7.3-3.3-7.3-7.3v-.4c.2 3.8 3.4 6.9 7.3 6.9z"/><circle fill="#070000" cx="18.5" cy="29.4" r="9.4"/><path fill="#262626" d="M18.5 21.3c-4.8 0-8.8 3.8-9 8.6v-.5c0-5 4.1-9.1 9.1-9.1s9.1 4.1 9.1 9.1v.5c-.4-4.8-4.3-8.6-9.2-8.6z"/><path fill="#262626" d="M18.5 36.7c3.9 0 7.1-3.1 7.3-6.9v.4c0 4-3.3 7.3-7.3 7.3s-7.3-3.3-7.3-7.3v-.4c.2 3.8 3.4 6.9 7.3 6.9z"/><path fill="#2B2B2B" d="M103.6 32.1l1.9-2c.3-.4.8-.6 1.2-.6l8-.3c.6 0 .6 2.6.1 2.6l-11.2.3z"/><path fill="#80C2DC" d="M57 1.5c7.6 1.7 15.1 5.7 21.5 9.4h-2.7C67.2 4.5 56.2 2.1 57 1.5z"/><path fill="#231F20" d="M46.7 32.8h23.8c2.5 0 2.6-3.3 2.6-7.8 0-1.2 0-2.4.1-3.7.3-6.3.3-7.4-1.6-10.6l-.1.1c1.9 3.1 1.9 4.2 1.6 10.5-.1 1.3-.1 2.5-.1 3.7 0 4.4-.1 7.7-2.5 7.7H46.7c-2.7 0-5.3-2.1-7.6-6.3-2-3.6-3.1-7.7-3.4-8.8-.6-2.2-.4-3.9.4-5 .8-1 2.2-1.5 4-1.5V11c-1.9 0-3.3.6-4.1 1.6-.9 1.2-1 2.9-.5 5.1.3 1.2 1.4 5.2 3.5 8.8 2.3 4.1 4.9 6.3 7.7 6.3z"/><g opacity=".5"><path fill="#FFF" d="M94 14.6c-32.6 0-51.2-.5-73.4 2.2-3.7-2.1-11-1.3-11-1.3 43.5-6.8 84.4-.9 84.4-.9z"/></g><g opacity=".5"><path fill="#FFF" d="M85.1 15.7c4.7-.3 11.5.3 13.8 9.5l-2.2-.4c-3.1-5.8-7.8-6.9-11.3-6.7-5.5.4-9.3 4.9-10 9.4-.5-5.6 4.1-11.4 9.7-11.8z"/></g><g opacity=".5"><path fill="#FFF" d="M75.2 23.1l-49.4-3.3 3.6 4.5"/></g><g opacity=".5"><path fill="#FFF" d="M113 28.4l-15-2.8 4.2 3.6"/></g><g opacity=".5"><path fill="#FFF" d="M112.6 32l-15.1.4 3.8.8 10.9-.8"/></g><ellipse fill="#231F20" cx="39.3" cy="15.7" rx="3.4" ry=".7"/><ellipse fill="#540C16" cx="39.3" cy="15.5" rx="3" ry=".5"/><g opacity=".5" fill="#FFF"><path d="M56.6 2.9c.2-.2.6-.3.8-.3 5.7 1.1 11.3 4.7 18.2 8.6 25.7 2.4 32.4 8.1 35.2 12.4.8 1.2 3.6 6 4.3 7.8.2-4.4-1.8-7-2.7-9.6-1.4-4-16-10.8-33.9-10.9C71.3 6.7 63.3 2.7 57 1.4c-.3 0-1.9.4-.4 1.5zM1.5 23.4c1.2-.4 2.2-1.6 2.1-4.1-.1-3.1 3.7-4.1 9.7-6.4 4.6-1.7 8.8-4.3 14.5-2.1 4.9 1.5 8.9.8 36.8.6 2.1 0 3-.4 2.9-.9-.4.3-1.3.5-3 .5-29.7 0-36-.1-36.7-1.6-3.1-5-12.7 1.1-17.2 2.8C5 14.3 1.3 14.9 2 18c.6 2.4.1 3.9-1 4.3-.4.1-1 2.7-.8 3.7.2-1 1-2.5 1.3-2.6z"/></g><path fill="#FFF" d="M110.1 30.8c.4-.5.3-.8-.1-.8h-1.5c-.5 0-1.1.4-1.5.8-.4.5-.3.8.1.8h1.5c.5.1 1.2-.3 1.5-.8z"/><path fill="#F9EFF0" d="M100.8 15.7c2-2.5 4.9-3.4 4.9-3.4s.7 3.2-.2 5.7c-1.4.1-4.7-2.3-4.7-2.3z"/><path class="car-body" d="M100.8 15.7c2-2.5 4.9-3.4 4.9-3.4s-.4 2.3-.2 5.7c-1.4.1-4.7-2.3-4.7-2.3z"/><g><path class="car-body" d="M73.2 11.8c-.3 1.3-3.1 1.9-4.4 1.7-1.3-.3-2.2-1.6-1.9-2.9.3-1.3 1.6-2.2 2.9-2 1.3.2 3.7 1.9 3.4 3.2z"/><path fill="#FFF" d="M67.6 9.7c.3.7.8 1.2 1.6 1.3.8.2 2.3-.1 3.2-.6-.6-.8-1.8-1.4-2.6-1.6-.9-.2-1.7.2-2.2.9z" opacity=".5"/></g><g opacity=".5"><path fill="#FFF" d="M36.8 28.5c8.5 1.9 30.7 2.7 37.9.1-6.7 2.2-31.2 6.8-37.9-.1z"/></g><g class="wheel"><path fill="#F9EFF0" d="M79.2 29.4c0 4 3.3 7.3 7.3 7.3s7.3-3.3 7.3-7.3-3.3-7.3-7.3-7.3-7.3 3.3-7.3 7.3zm1.4 2.2l.9-.1-.8.5c0-.1-.1-.3-.1-.4zm-.3-1c-.1-.4-.1-.8-.1-1.2 0-.4 0-.8.1-1.2l3.1.5.9.7-.9.7-3.1.5zm11.9 1.5l-.9-.6 1.1.2c0 .1-.1.2-.2.4zm-2.7-2l-.9-.7.9-.7 3.2-.5c.1.4.1.8.1 1.2 0 .4 0 .8-.1 1.2l-3.2-.5zm2.9-2.9l-1.1.2.9-.6c.1.1.2.2.2.4zm-11.7-.4l.8.6-.9-.1c0-.2.1-.4.1-.5zm2.2-2.6l1.9 2.6.2 1.1-1.1-.2-2.6-1.8c.4-.7.9-1.3 1.6-1.7zm.9-.5c.1-.1.3-.1.4-.2l.2 1-.6-.8zm2.7-.7c.4 0 .8 0 1.1.1l-.5 3.2-.7.9-.7-.9-.5-3.2c.4 0 .9-.1 1.3-.1zm2.1.4c.2.1.3.1.5.2l-.6.9.1-1.1zm3.1 2.4L89 27.7l-1.1.2.2-1.1 1.9-2.6c.7.4 1.3.9 1.7 1.6zM90 34.7L88.1 32l-.2-1.1 1.1.2 2.6 1.9c-.4.7-.9 1.2-1.6 1.7zm-.9.5c-.1.1-.3.1-.4.2l-.2-1 .6.8zm-2.6.5c-.4 0-.9 0-1.3-.1l.5-3.1.7-.9.7.9.5 3.2h-1.1zm-2.3-.4c-.1-.1-.3-.1-.4-.2l.6-.8-.2 1zm-3-2.4l2.5-1.8 1.1-.2-.1 1.1-1.8 2.6c-.7-.5-1.2-1-1.7-1.7z"/><path fill="#999" d="M84.8 34.4L84 34l1.1-1.5-.3 1.9zm3.2 0l-.3-1.8 1.1 1.5-.8.3zM85.4 32l.3-1.8-1.8.3 1.5-1.1-1.5-1.1 1.8.3-.3-1.8 1.1 1.5 1.1-1.5-.3 1.8 1.8-.3-1.5 1.1 1.5 1.1-1.8-.3.3 1.8-1.1-1.5-1.1 1.5zm-3.6-.2l-.4-.8 1.8-.3-1.4 1.1zm9.3 0l-1.5-1.1 1.8.3-.3.8zm-1.5-3.7l1.5-1.1.3.8-1.8.3zm-6.3 0l-1.8-.3.3-.8 1.5 1.1zm1.8-1.9L84 24.8l.8-.3.3 1.7zm2.6 0l.3-1.8.8.3-1.1 1.5z"/></g><g class="wheel"><path fill="#F9EFF0" d="M11.2 29.4c0 4 3.3 7.3 7.3 7.3s7.3-3.3 7.3-7.3-3.3-7.3-7.3-7.3-7.3 3.3-7.3 7.3zm1.4 2.2l.9-.1-.8.5c0-.1-.1-.3-.1-.4zm-.3-1c-.1-.4-.1-.8-.1-1.2 0-.4 0-.8.1-1.2l3.1.5.9.7-.9.7-3.1.5zm12 1.5l-.9-.6 1.1.2c-.1.1-.2.2-.2.4zm-2.8-2l-.9-.7.9-.7 3.2-.5c.1.4.1.8.1 1.2 0 .4 0 .8-.1 1.2l-3.2-.5zm3-2.9l-1.1.2.9-.6c0 .1.1.2.2.4zm-11.8-.4l.8.6-.9-.1c0-.2.1-.4.1-.5zm2.2-2.6l1.9 2.6.2 1.1-1.1-.2-2.6-1.8c.4-.7.9-1.3 1.6-1.7zm.9-.5c.1-.1.3-.1.4-.2l.2 1-.6-.8zm2.7-.7c.4 0 .8 0 1.1.1l-.5 3.2-.7.9-.7-.9-.5-3.2c.5 0 .9-.1 1.3-.1zm2.2.4c.2.1.3.1.5.2l-.6.9.1-1.1zm3 2.4L21 27.7l-1.1.2.2-1.1 1.9-2.6c.7.4 1.3.9 1.7 1.6zM22 34.7L20.1 32l-.2-1.1 1.1.2 2.6 1.9c-.3.7-.9 1.2-1.6 1.7zm-.9.5c-.1.1-.3.1-.4.2l-.2-1 .6.8zm-2.6.5c-.4 0-.9 0-1.3-.1l.5-3.1.7-.9.7.9.5 3.2h-1.1zm-2.3-.4c-.1-.1-.3-.1-.4-.2l.6-.8-.2 1zm-2.9-2.4l2.5-1.8 1.1-.2-.1 1.1-1.8 2.6c-.7-.5-1.3-1-1.7-1.7z"/><path fill="#999" d="M16.8 34.4l-.7-.4 1.1-1.5-.4 1.9zm3.2 0l-.3-1.8 1.1 1.5-.8.3zM17.4 32l.3-1.8-1.8.3 1.5-1.1-1.5-1.1 1.8.3-.3-1.8 1.1 1.5 1.1-1.5-.3 1.8 1.8-.3-1.5 1.1 1.5 1.1-1.8-.3.3 1.8-1.1-1.5-1.1 1.5zm-3.6-.2l-.3-.8 1.8-.3-1.5 1.1zm9.3 0l-1.5-1.1 1.8.3-.3.8zm-1.5-3.7l1.5-1.1.3.8-1.8.3zm-6.3 0l-1.8-.3.3-.8 1.5 1.1zm1.8-1.9L16 24.7l.8-.3.3 1.8zm2.6 0l.3-1.8.8.3-1.1 1.5z"/></g></svg>