<svg xmlns="http://www.w3.org/2000/svg" viewBox="-451 485.2 119.7 54.8" class="car suv"><ellipse opacity=".4" cx="-390.4" cy="538" rx="59.1" ry="2"/><path fill="#2D2D2D" d="M-384.2 503.9h24.3c-3.4-3.9-10.7-12.2-14.2-16.4-1.2-.2-3.4-.6-14-.8l3.9 17.2z"/><path fill="#80C2DC" d="M-386.8 487.3c9.8.2 12 .5 13.1.7 3.4 4 10 11.5 13.4 15.3H-383l-3.8-16z"/><path fill="#2D2D2D" d="M-442.1 516.4c0 .5-.4.9-.9.9h-7.1c-.5 0-.9-.4-.9-.9v-18.8c0-.5.4-.9.9-.9h7.1c.5 0 .9.4.9.9v18.8z"/><path fill="#383838" d="M-443.3 496.8h-6.5c-.5 0-.9.4-.9.9v3.2c0-.5.4-.9.9-.9h6.5c.5 0 .9.4.9.9v-3.2c0-.5-.4-.9-.9-.9z"/><path fill="#111" d="M-443.3 517h-6.5c-.5 0-.9-.4-.9-.9v-3.2c0 .5.4.9.9.9h6.5c.5 0 .9-.4.9-.9v3.3c0 .4-.4.8-.9.8z"/><path fill="#2D2D2D" d="M-370.6 525.8c0 1.2-.9 2.1-2.1 2.1h-32.5c-1.2 0-2.1-.9-2.1-2.1 0-1.2.9-2.1 2.1-2.1h32.5c1.2 0 2.1.9 2.1 2.1z"/><path class="car-body" d="M-440.2 525.4h106.9c.7-.5 1.1-1.2 1.1-2.4 0-3 .2-6.3-1.1-6.4v-5.1c0-3.8-2.8-3.1-2.8-3.1s-.2-1.1-2-2.8c-3.6-.8-24.5-2.2-24.5-2.2s-10-13.1-12.9-17.2c-1.1-1.7-60.3-.8-60.3-.8-1.8 4.1-7.6 18.9-7.6 18.9-1.2 7-.7 13.3-1.1 13.3-.8 0 .2 6.6.2 6.6s1.7.7 4.1 1.2z"/><path opacity=".4" fill="#FFF" d="M-336.8 508.7l-105.9-3.5.5-2.1 79 1.2 24.7 1.9"/><path fill="#CECECE" d="M-365 505.5h-78.3v-.5h78.3v.5zm0 5.8h-48.5v.5h48.5v-.5zm-.4-1.4h-49v.5h49v-.5z"/><path fill="#BFBFBF" d="M-391.6 522.9v-35.2h1.2c10.6.2 13.1.5 14.5.7l.5.1.3.4c2.5 3.5 8.1 10.7 10.4 13.6l.1.1-.4 10.2-4.4 10.1h-22.2zm.4-34.7v34.3h21.4l4.3-9.8.3-9.9c-2.3-3-7.8-10.1-10.3-13.6l-.2-.2h-.3c-1.4-.4-3.8-.6-14.4-.8h-.8zm-.7 34.7h-14.2l-8.7-12.7-.5-7.3c1.5-5.1 3.1-9.9 4.6-14.6l.3-.8h.8c7.4 0 11.7 0 16.9.1h.8v35.3zm-14-.5h13.5v-34.3h-.3c-5.2-.1-9.4-.1-16.9-.1h-.5l-.2.5c-1.6 4.6-3.1 9.4-4.6 14.5l.5 7.1 8.5 12.3z"/><path fill="#2D2D2D" d="M-390.5 488.9c11.1.2 13.2.5 14.4.7 2.5 3.5 7.9 10.5 10.4 13.7h-24.8v-14.4zm-21.2-.2h-23.2c-1.6 3.8-4.3 11-5.7 14.4h24.2c1.6-4.7 3.1-9.6 4.7-14.4zm2.3 0c-1.6 4.8-3.2 9.7-4.6 14.5h21.5v-14.4c-4.9 0-9.2-.1-16.9-.1z"/><path fill="#80C2DC" d="M-413.4 502.7c1.4-4.7 2.9-9.1 4.3-13.5 7 0 11.1 0 16 .1v13.4h-20.3zm-26.4 0c1.5-3.8 3.8-9.9 5.3-13.4 3.5-.1 13.7-.1 22.1-.1-1.4 4.3-2.8 8.8-4.3 13.5h-23.1zm49.8-13.3c10.3.2 12.5.5 13.6.6 2.3 3.2 6.8 9 9.7 12.7H-390v-13.3z"/><path fill="#2D2D2D" d="M-367.5 525.3c.2 0 .4 0 .4-.1l5-8.6c.1-.2.2-.3.3-.5.4-.3.7-.6 1.1-.9.7-.4 1.4-.7 2.1-.7h10c1.3 0 2.9.9 3.5 2l5 8.6c2.1-.3 6.2 1.3 6.2 1.3l-19.1 5.7-19.1-5.5 4.6-1.3zm-39.8 0H-407.6l-5-8.6c-.6-1.1-2.2-2-3.5-2h-9.9c-1.3 0-2.9.9-3.5 2l-5 8.6-.1.1-.1.1-8.6.9 22.3 6 22.7-7.5-9 .4z"/><path fill="#D4D6D6" d="M-435.2 526.9l4.6-10.3c.6-1.1 2.1-2 3.4-2h10c1.3 0 3 .9 3.7 2l5.7 8.6c.2.4 40.2.4 40.4 0l4.3-8.6c.6-1.1 2.1-2 3.4-2h10c1.3 0 3 .9 3.7 2l5.7 8.6c.2.4 6.3 1.3 6.3 1.3 1-.5 1.7-1.3 1.6-2.7 0-.2 0-.4-.1-.7h-5.9l-5.3-8c-1.3-2-4-3.4-6.3-3.4h-10c-2.3 0-4.7 1.5-5.7 3.4l-3.9 8h-36.3l-5.3-8c-1.3-2-4-3.4-6.3-3.4h-10c-2.3 0-4.7 1.5-5.7 3.4l-3.8 8.1h-8c.2 1.1.7 3.6.7 3.6s1.9.7 5.4 1.3c-.1 0 3.5-.8 3.7-1.2z"/><path fill="#FFF" d="M-436.9 524l3.9-8c1-2 3.4-3.4 5.7-3.4h10c2.3 0 4.9 1.5 6.3 3.4l5.3 8h36.3l3.9-8c1-2 3.4-3.4 5.7-3.4h10c2.3 0 4.9 1.5 6.3 3.4l5.3 8h5.9v-.2c0-.2 0-.4-.1-.7h-5.9l-5.3-8c-1.3-2-4-3.4-6.3-3.4H-360c-2.3 0-4.7 1.5-5.7 3.4l-3.9 8h-36.3l-5.3-8c-1.3-2-4-3.4-6.3-3.4h-10c-2.3 0-4.7 1.5-5.7 3.4l-3.8 8.1h-8c.1.3.1.6.2.8h7.9z"/><circle fill="#242424" cx="-421" cy="527.2" r="11"/><path fill="#383838" d="M-421 518.3c5.4 0 9.8 4.2 10.3 9.5v-.8c0-5.7-4.6-10.3-10.3-10.3s-10.3 4.5-10.3 10.2v.8c.4-5.2 4.8-9.4 10.3-9.4z"/><path fill="#111" d="M-421 537.1c-5.9 0-10.7-4.6-11-10.4v.6c0 6.1 4.9 11 11 11s11-4.9 11-11v-.6c-.4 5.8-5.2 10.4-11 10.4z"/><path fill="#111" d="M-421 519.3c4.3 0 7.8 3.4 7.9 7.7v-.2c0-4.4-3.5-7.9-7.9-7.9s-8 3.5-8 7.9v.2c.2-4.3 3.7-7.7 8-7.7z"/><path fill="#383838" d="M-421 535.2c4.3 0 7.8-3.4 7.9-7.7v.2c0 4.4-3.5 7.9-7.9 7.9s-8-3.5-8-7.9v-.2c.2 4.3 3.7 7.7 8 7.7z"/><circle fill="#242424" cx="-353.3" cy="527.2" r="11"/><path fill="#383838" d="M-353.3 518.3c5.4 0 9.8 4.2 10.3 9.5v-.8c0-5.7-4.6-10.3-10.3-10.3-5.7 0-10.3 4.5-10.3 10.2v.8c.4-5.2 4.8-9.4 10.3-9.4z"/><path fill="#111" d="M-353.3 537.1c-5.9 0-10.7-4.6-11-10.4v.6c0 6.1 4.9 11 11 11s11-4.9 11-11v-.6c-.4 5.8-5.2 10.4-11 10.4z"/><path fill="#111" d="M-353.3 519.3c4.3 0 7.8 3.4 7.9 7.7v-.2c0-4.4-3.5-7.9-7.9-7.9s-7.9 3.5-7.9 7.9v.2c.1-4.3 3.6-7.7 7.9-7.7z"/><path fill="#383838" d="M-353.3 535.2c4.3 0 7.8-3.4 7.9-7.7v.2c0 4.4-3.5 7.9-7.9 7.9s-7.9-3.5-7.9-7.9v-.2c.1 4.3 3.6 7.7 7.9 7.7z"/><path fill="#B2B2B2" d="M-365.8 526.1c0 .5-.4.9-.9.9h-40.8c-.5 0-.9-.4-.9-.9s.4-.9.9-.9h40.8c.5 0 .9.4.9.9z"/><path fill="#FFF" d="M-365.9 525.9c-.1-.4-.4-.7-.8-.7h-40.8c-.4 0-.7.3-.8.7h42.4z"/><path fill="#939393" d="M-408.2 526.6c.2.2.4.4.7.4h40.8c.3 0 .6-.1.7-.4h-42.2z"/><path fill="#BFBFBF" d="M-408.2 505.9c0-.2-.1-.3-.3-.3h-5.1c-.2 0-.3.1-.3.3v1.2c0 .2.1.3.3.3h5.1c.2 0 .3-.1.3-.3v-1.2zm-5.5-.2h5.1c.1 0 .2.1.2.2v.6c0 .1-.1.2-.2.2h-5.1c-.1 0-.2-.1-.2-.2v-.6c0-.1.1-.2.2-.2zm5.1 1.6h-5.1c-.1 0-.2-.1-.2-.2v-.3c.1 0 .1.1.2.1h5.1c.1 0 .1 0 .2-.1v.3c0 .1-.1.2-.2.2zm23.9-1.4c0-.2-.1-.3-.3-.3h-5.1c-.2 0-.3.1-.3.3v1.2c0 .2.1.3.3.3h5.1c.2 0 .3-.1.3-.3v-1.2zm-5.5-.2h5.2c.1 0 .2.1.2.2v.6c0 .1-.1.2-.2.2h-5.1c-.1 0-.2-.1-.2-.2v-.6c-.1-.1 0-.2.1-.2zm5.2 1.6h-5.1c-.1 0-.2-.1-.2-.2v-.3c.1 0 .1.1.2.1h5.1c.1 0 .1 0 .2-.1v.3c-.1.1-.1.2-.2.2z"/><path opacity=".4" fill="#FFF" d="M-341.4 517.4h7.7c1.6 0 .9 3.5.9 3.5l-7-.2-1.6-3.3z"/><path fill="#7F374D" d="M-440.6 522.1v-4.3h-4.1c-.3.5-.1 2.6 0 4.3h4.1z"/><path fill="#70221E" d="M-440.6 518.8v-2.3h-4.1c-.2.3-.2 1.2-.1 2.3h4.2z"/><path fill="#E37333" d="M-338.9 508.5v-.4c0-.5-.4-.9-.9-.9h-3.5c-.5 0-.9.4-.9.9v.4h5.3z"/><path fill="#200000" d="M-364.9 502.7c-.2 2.5-2 1.8-2.9 1.8-.9 0-1.1-.8-1-1.9.2-1.5.7-1.9 1.6-1.9.9 0 2.5-.1 2.3 2z"/><path fill="#2D2D2D" d="M-368.6 501.8c.2.5.6.8 1 .8.5 0 3 .6 2.1-1.3-.4-.5-1.2-.4-1.7-.5-.5 0-1.1.4-1.4 1z"/><path opacity=".5" fill="#FFF" d="M-356.1 508.8l21.6.7.5 3.1m-56-19.8v-3.4c1.2 0 2.3 0 3.4.1-1.1 1.1-2.2 2.2-3.4 3.3zm9.6-3.1l-9.6 9.5v3.5h6.7l9.4-9.4c-.9-1.3-1.8-2.4-2.5-3.3-.6-.1-1.5-.2-4-.3zm3.5 13h4.9l3-3-2.1-2.7-5.8 5.7zm-61.1-4.6c-.5 1.2-1 2.5-1.4 3.5l12.4-12.4h-2.2l-8.8 8.9zm17.4-8.9l-13.5 13.5h10.7l9.7-9.7c.4-1.3.8-2.5 1.2-3.8h-8.1zm17.1 0l-8.3 8.3c-.5 1.7-1.1 3.4-1.6 5.2h13.5l6.8-6.8v-6.6c-3.4 0-6.4 0-10.4-.1z"/><g class="wheel"><path fill="#DCDFE2" d="M-421 519.3c-4.4 0-7.9 3.5-7.9 7.9s3.5 7.9 7.9 7.9 7.9-3.5 7.9-7.9c0-4.3-3.6-7.9-7.9-7.9zm7.3 7.9c0 .3 0 .7-.1 1l-2.5-.1-1.5-1 1.5-1 2.5-.1c0 .5.1.9.1 1.2zm-5.5 1.6l.3.3.4.6-.6-.4-.3-.3c0-.1-.1-.2-.1-.3.1 0 .2.1.3.1zm-.3-3.1c0-.1.1-.2.1-.3l.3-.3.6-.4-.4.5-.3.3c-.1.1-.2.1-.3.2zm.8 2.2c-.1-.1-.2-.2-.3-.2.1 0 .2 0 .3-.1.1 0 .3 0 .4.1l.6.3h-.7c-.1.1-.2 0-.3-.1zm.5-1.3c-.1.1-.3.1-.4.1s-.2-.1-.3-.1c.1-.1.2-.1.3-.2.1-.1.3-.1.4-.1h.7l-.7.3zm0-1.1l.8-1.6 2.1-1.3c.5.6.8 1.2 1.1 1.9l-2.2 1.1-1.8-.1zm.4-1.9l-1.6.8-.1-1.8 1.1-2.1c.7.3 1.3.6 1.9 1.1l-1.3 2zm-1.8-1.9l-.1-1.6c.3.1.7.2 1 .3l-.9 1.3zm0 11l1 1.4c-.3.1-.7.2-1.1.3l.1-1.7zm.1-.9l.1-1.8 1.6.8 1.4 2.1c-.6.5-1.2.8-1.9 1.1l-1.2-2.2zm1.3-3l1.8-.1 2.2 1.2c-.3.7-.6 1.3-1.1 1.9l-2.1-1.3-.8-1.7zm2.6-.2l1.7-.1c-.1.4-.2.7-.3 1l-1.4-.9zm0-2.9l1.4-.9c.1.3.2.7.3 1l-1.7-.1zm0-3.3l-1.4.8.7-1.4c.3.1.5.4.7.6zm-4.4-2.4l-.1 2.4-1 1.5-1-1.5-.1-2.4c.4-.1.7-.1 1.1-.1.4.1.8.1 1.1.1zm-.5 9.2c.1.1.1.2.2.3.1.1.1.3.1.4v.7l-.3-.6c-.1-.1-.1-.3-.1-.4.1-.1.1-.2.1-.4zm-.1-4.4c0-.1 0-.3.1-.4l.3-.6v.7c0 .2 0 .3-.1.4-.1.1-.2.2-.2.3 0-.2 0-.3-.1-.4zm-1.3 5.1c0-.2 0-.3.1-.4.1-.1.2-.2.2-.3 0 .1 0 .2.1.3 0 .1 0 .3-.1.4l-.4.7.1-.7zm-.1-6.2l.3.6c.1.1.1.3.1.4 0 .1-.1.2-.1.3-.1-.1-.1-.2-.2-.3s-.1-.3-.1-.4v-.6zm-6.3 3.5c0-.4 0-.8.1-1.1l2.4.1 1.5 1-1.5 1-2.5.1v-1.1zm4.4.6c.1-.1.3-.1.4-.1s.2.1.3.1c-.1.1-.2.1-.3.2-.1.1-.3.1-.4.1h-.7l.7-.3zm0-1.2l-.6-.3h.7c.2 0 .3 0 .4.1.1.1.2.2.3.2-.1 0-.2 0-.3.1-.2 0-.3-.1-.5-.1zm.7 2.5l.3-.3c.1 0 .2-.1.3-.1 0 .1-.1.2-.1.3l-.3.3-.6.4.4-.6zm.3-3.5l-.3-.3-.4-.6.6.4.3.3c0 .1.1.2.1.3-.1-.1-.2-.1-.3-.1zm.2-1.3l-1.6-.8-1.3-2c.6-.4 1.2-.8 1.9-1.1l1.1 2.1-.1 1.8zm-1.2 1.2l-1.8.1-2.2-1.1c.3-.7.6-1.3 1.1-1.9l2 1.3.9 1.6zm-2.6.2l-1.7.1c.1-.3.2-.7.3-1l1.4.9zm0 3l-1.4.9c-.1-.3-.2-.7-.3-1l1.7.1zm.9 0l1.8.1-.8 1.6-2.1 1.3c-.4-.6-.8-1.2-1.1-1.9l2.2-1.1zm1.3 2.1l1.6-.8.1 1.8-1.2 2.2c-.7-.3-1.3-.6-1.9-1.1l1.4-2.1zm1.8 1.9l.1 1.7c-.4-.1-.7-.2-1.1-.3l1-1.4zm0-11l-.9-1.3c.3-.1.6-.2 1-.3l-.1 1.6zm-3.3 0l.7 1.4-1.4-.7.7-.7zm-.8 10.3l1.5-.8-.8 1.5-.7-.7zm4.5 2.5l.1-2.5 1-1.5 1 1.5.1 2.5c-.4.1-.7.1-1.1.1-.4-.1-.8-.1-1.1-.1zm5.8-1.8l-.7-1.5 1.5.8c-.2.2-.5.5-.8.7z"/></g><g class="wheel"><path fill="#DCDFE2" d="M-353.4 519.3c-4.4 0-7.9 3.5-7.9 7.9s3.5 7.9 7.9 7.9 7.9-3.5 7.9-7.9c0-4.3-3.5-7.9-7.9-7.9zm7.4 7.9c0 .3 0 .7-.1 1l-2.5-.1-1.5-1 1.5-1 2.5-.1c0 .5.1.9.1 1.2zm-5.5 1.6l.3.3.4.6-.6-.4-.3-.3c0-.1-.1-.2-.1-.3 0 0 .2.1.3.1zm-.4-3.1c0-.1.1-.2.1-.3l.3-.3.6-.4-.4.5-.3.3c0 .1-.2.1-.3.2zm.9 2.2c-.1-.1-.2-.2-.3-.2.1 0 .2 0 .3-.1.1 0 .3 0 .4.1l.6.3h-.7c-.2.1-.3 0-.3-.1zm.5-1.3c-.1.1-.3.1-.4.1-.1 0-.2-.1-.3-.1.1-.1.2-.1.3-.2.1-.1.3-.1.4-.1h.7l-.7.3zm0-1.1l.8-1.6 2.1-1.3c.5.6.8 1.2 1.1 1.9l-2.2 1.1c-.1 0-1.9-.1-1.8-.1zm.4-1.9l-1.6.8-.1-1.8 1.1-2.1c.7.3 1.3.6 1.9 1.1l-1.3 2zm-1.9-1.9l-.1-1.6c.3.1.7.2 1 .3.1 0-.9 1.3-.9 1.3zm0 11l1 1.4c-.3.1-.7.2-1.1.3l.1-1.7zm.1-.9l.1-1.8 1.6.8 1.4 2.1c-.6.5-1.2.8-1.9 1.1.1 0-1.2-2.2-1.2-2.2zm1.4-3l1.8-.1 2.2 1.2c-.3.7-.6 1.3-1.1 1.9l-2.1-1.3c-.1 0-.8-1.7-.8-1.7zm2.5-.2l1.7-.1c-.1.4-.2.7-.3 1l-1.4-.9zm0-2.9l1.4-.9c.1.3.2.7.3 1l-1.7-.1zm0-3.3l-1.4.8.7-1.4c.3.1.6.4.7.6zm-4.4-2.4l-.1 2.4-1 1.5-1-1.5-.1-2.4c.4-.1.7-.1 1.1-.1.5.1.9.1 1.1.1zm-.5 9.2c.1.1.1.2.2.3.1.1.1.3.1.4v.7l-.3-.6c-.1-.1-.1-.3-.1-.4.1-.1.1-.2.1-.4zm-.1-4.4c0-.1 0-.3.1-.4l.3-.6v.7c0 .2 0 .3-.1.4-.1.1-.2.2-.2.3 0-.2 0-.3-.1-.4zm-1.2 5.1c0-.2 0-.3.1-.4.1-.1.2-.2.2-.3 0 .1 0 .2.1.3 0 .1 0 .3-.1.4l-.4.7c-.1 0 .1-.7.1-.7zm-.2-6.2l.3.6c.1.1.1.3.1.4 0 .1-.1.2-.1.3-.1-.1-.1-.2-.2-.3s-.1-.3-.1-.4v-.6zm-6.2 3.5c0-.4 0-.8.1-1.1l2.4.1 1.5 1-1.5 1-2.5.1v-1.1zm4.4.6c.1-.1.3-.1.4-.1s.2.1.3.1c-.1.1-.2.1-.3.2-.1.1-.3.1-.4.1h-.7l.7-.3zm0-1.2l-.6-.3h.7c.2 0 .3 0 .4.1.1.1.2.2.3.2-.1 0-.2 0-.3.1-.3 0-.3-.1-.5-.1zm.7 2.5l.3-.3c.1 0 .2-.1.3-.1 0 .1-.1.2-.1.3l-.3.3-.6.4c-.1 0 .4-.6.4-.6zm.3-3.5l-.3-.3-.4-.6.6.4.3.3c0 .1.1.2.1.3-.1-.1-.2-.1-.3-.1zm.2-1.3l-1.6-.8-1.3-2c.6-.4 1.2-.8 1.9-1.1l1.1 2.1-.1 1.8zm-1.2 1.2l-1.8.1-2.2-1.1c.3-.7.6-1.3 1.1-1.9l2 1.3.9 1.6zm-2.7.2l-1.7.1c.1-.3.2-.7.3-1 .1 0 1.4.9 1.4.9zm0 3l-1.4.9c-.1-.3-.2-.7-.3-1 .1 0 1.7.1 1.7.1zm.9 0l1.8.1-.8 1.6-2.1 1.3c-.4-.6-.8-1.2-1.1-1.9.1 0 2.2-1.1 2.2-1.1zm1.4 2.1l1.6-.8.1 1.8-1.2 2.2c-.7-.3-1.3-.6-1.9-1.1l1.4-2.1zm1.7 1.9l.1 1.7c-.4-.1-.7-.2-1.1-.3l1-1.4zm0-11l-.9-1.3c.3-.1.6-.2 1-.3l-.1 1.6zm-3.2 0l.7 1.4-1.4-.7c-.1 0 .7-.7.7-.7zm-.9 10.3l1.5-.8-.8 1.5-.7-.7zm4.5 2.5l.1-2.5 1-1.5 1 1.5.1 2.5c-.4.1-.7.1-1.1.1-.4-.1-.7-.1-1.1-.1zm5.9-1.8l-.7-1.5 1.5.8c-.2.2-.6.5-.8.7z"/></g></svg>