<svg xmlns="http://www.w3.org/2000/svg" viewBox="0 0 1024 1024" id="loading-paw">
    <ellipse class="paw-toe" cx="156.1" cy="427.4" rx="143.7" ry="110.2"/>
    <ellipse class="paw-toe" cx="374.8" cy="227.1" rx="148.5" ry="113.8"/>
    <ellipse class="paw-toe" cx="648" cy="227.1" rx="113.8" ry="148.5"/>
    <ellipse class="paw-toe" cx="867.9" cy="427.4" rx="110.2" ry="143.7"/>
    <path class="paw" d="M819.7 759.6c0 112.4-192.3 162-362 148.7-5.1-.4-10.1 1.3-13.9 4.7-40.2 34.8-95 60.3-144.1 50.3 24.1-13.7 43.6-32.3 57.9-53.9 4.8-7.2 1.1-16.9-7.2-19.2C265.9 866.9 204 823.3 204 759.6 204 559.7 399.8 396 511.9 396s307.8 163.8 307.8 363.6zm-205.2-44.4c0-41.7-21.7-67.1-76.8-86.6-39.3-14.8-55.6-24.5-55.6-39.8 0-13 9.7-25.9 39.8-25.9 33.3 0 54.5 10.6 66.5 15.7l13.2-52.3c-15.3-7.4-37.2-13.9-67.5-15.3v-39.2h-45.5v42.5c-49.3 9.7-77.7 41.7-77.7 82.4 0 44.9 34.3 68 83.8 84.7 34.3 11.6 49 22.7 49 40.3 0 18.5-18.1 28.7-44.5 28.7-30.1 0-57.5-9.7-77-20.4L408 784.2c17.6 10.2 46.4 18.5 78.1 19.9v44.7h45.5v-48c53.1-9.2 82.9-44.4 82.9-85.6z"/>
</svg>