<?xml version="1.0" encoding="utf-8"?>
<!-- Generator: Adobe Illustrator 19.1.0, SVG Export Plug-In . SVG Version: 6.00 Build 0)  -->
<!DOCTYPE svg PUBLIC "-//W3C//DTD SVG 1.1//EN" "http://www.w3.org/Graphics/SVG/1.1/DTD/svg11.dtd">
<svg version="1.1" id="Layer_1" xmlns="http://www.w3.org/2000/svg" xmlns:xlink="http://www.w3.org/1999/xlink" x="0px" y="0px"
	 viewBox="206 302.2 1024 188.8" enable-background="new 206 302.2 1024 188.8" xml:space="preserve">
<g>
	<path fill="#AAD037" d="M1226.6,313.1c-0.6,0.1-0.9,0.2-1.5,0.4c-8.3,2.1-16.7,4.2-25.1,6.3c-5.5,1.3-11.1,2.6-16.7,4
		c-2.7,0.6-5.2,1.1-7.4,1.7c-2.7,0.5-5,0.9-6.8,1.3c-3.5,0.7-6.7,1.2-9.6,1.6c0.3-0.9,0.4-1.7,0.4-2.4c0-0.5,0-0.7,0-1.2
		c-0.5,0.5-1.6,1.2-3.2,2s-2.6,1.3-3,1.4c0-0.8,0.1-1.9,0.3-3.3c0.1-1.1,0.2-1.9,0.2-2.5c-0.4,1-1.2,2.4-2.2,4
		c-1.7,2.6-2.5,4-2.6,4.1c0-2.1-0.1-3.8-0.2-5c-0.2-2-0.7-4.2-1.5-6.4c-0.7,0.9-1.3,2.7-1.8,5.3c-0.5,2.7-0.7,4.7-0.4,6
		c-0.1,0-0.3,0-0.4-0.1c-0.2-0.2-0.3-0.2-0.5-0.2c-2-2.8-3-4.2-3-4.2c-1.9-2.1-3.7-2.9-5.5-2.6c-0.7,0.2-1.4,0.5-2.2,0.9
		c-1.2,0.6-1.8,1.4-1.8,2.2c0,0.1,0.3,1.1,1,2.8c0.4,1.1,0.8,1.9,1,2.4c-11.6,0.1-23.4-0.5-35,0.4c-2.8,0.5-5,0.9-6.5,1.3
		c-0.2,0-0.4-0.1-0.6-0.1c-0.1-0.1-0.2-0.1-0.2,0c-8.2-1.1-16.2-2-24.1-2.7h-0.1c-3.7-0.4-7.2-0.7-10.7-0.8
		c-3.2-0.3-6.3-0.5-9.1-0.6c-6.4-0.5-12.8-0.7-19.1-0.6c-0.8-0.1-1.4-0.1-2,0c-2.5-1.1-6-2-10.6-2.9c-2.1-1.1-4.1-1.8-6-2.3
		c-3.6-1.3-7.1-2.2-10.8-2.8c-0.9-0.2-1.6-0.3-2.2-0.3c-1.9-0.4-3.4-0.6-4.8-0.8c-0.7-0.1-1.4-0.2-1.9-0.2c-0.9-0.3-1.6-0.4-2-0.3
		c-1.7-0.2-2.7-0.4-3-0.4c-0.5-0.2-1.5-0.3-3-0.2c-0.1,0-0.1,0-0.2,0c-0.6-0.3-0.9-0.3-0.9-0.2c-0.3-0.1-0.7-0.1-1,0
		c-0.2-0.1-0.3-0.1-0.3,0c-0.1,0-0.3,0-0.4,0c-0.3,0.4-0.4,0.9-0.4,1.4c-0.1-0.5,0-1,0.2-1.5c-2.5-0.4-4.3-0.4-5.4-0.1
		c-0.6-0.1-1.1,0-1.6,0.2c-0.3-0.1-0.5-0.1-0.5,0c-0.7-0.1-1.1,0-1.3,0.1c-0.1-0.4-0.1-0.7,0-0.9c-0.1-0.3-0.1-0.5,0-0.6
		c-0.2-0.5-0.3-0.8-0.4-0.8c-0.3-0.2-0.8-0.4-1.4-0.4c-0.6-0.1-0.9-0.1-1-0.1c-0.5,0-0.7,0.1-0.7,0.1c-0.2,0-0.8,0.4-1.8,1.2
		c0-0.1-0.1-0.2-0.1-0.3c0-0.3-0.2-0.7-0.6-1c-0.5-0.7-0.9-1-1.2-0.9c-1.2-0.2-2.2,0.2-3.1,1c-0.7,0.4-1.1,0.9-1,1.5
		c-0.3-0.9-0.8-1.7-1.6-2.3c-1.6-1.4-2.5-1.9-2.7-1.6c-0.3,0-0.5,0.1-0.6,0.5c-0.1,0-0.1,0.2,0,0.8c0,0.5,0,1,0.1,1.3
		c-0.1,0.3,0,0.7,0.3,1.4c0,0.1,0,0.2,0,0.4h-0.1c-0.4-0.8-1.1-1.6-2.2-2.6c-1.3-1.4-2.3-2.1-2.9-2c-0.5-0.2-0.7-0.1-0.8,0.1
		c-0.3,0-0.5,0.2-0.4,0.5c-0.2,0.4,0,1.1,0.6,2.1c0,0.1,0,0.1-0.1,0.1c-6.7-2.5-13.4-4.4-20.2-5.9c-4.7-1.1-9.3-2-13.8-2.7
		c-5.2-0.9-10.4-1.5-15.5-1.8c-6.8-0.6-13.5-0.7-20.1-0.3c-1.9,0-3.6,0.1-5,0.3c-0.5-0.2-0.8-0.2-1,0c-1.6,0-3.2,0.1-4.6,0.3
		c-0.7-0.1-1.2-0.1-1.4,0.2c-0.9,0-1.7,0.1-2.5,0.3c-2.8,0.2-5.6,0.5-8.3,1c-0.3-0.1-0.5-0.1-0.5,0c-0.4,0-0.8,0-1.2,0.1
		c-1.6,0.2-2.9,0.4-4,0.7c0,0.1,0,0.1,0,0.1c0-0.1-0.1-0.1-0.1-0.1c-0.9-0.4-1.5-0.2-2,0.4c-3-3.1-5.4-3.4-7-0.8
		c-3.5-2.7-5.8-3.2-6.7-1.4c-3-1.9-4.9-2.2-5.5-0.8c-2.2-0.7-2.8-0.3-1.8,1.3c-7.4-1.5-11.1-1.4-11,0.3c-11.6-1.7-20.8-2.1-27.8-1.1
		c-1.3-0.3-2.6-0.5-3.8-0.6c-4.1-0.7-7.9-1-11.5-0.9c-7-0.1-12.4,0.5-16.2,1.8c-0.3-1.1-0.4-1.8-0.4-2.2c-0.1,0-0.2,0-0.2,0
		c-1.4,0.4-2.1,0.8-2.4,1.1c-0.6,0.2-0.8,0.5-0.5,0.9c0.1,0,0.1,0,0.1,0c-0.1,0-0.1,0.1-0.1,0.1c-0.1-0.1-0.1-0.1,0-0.1
		c-1-0.5-1.7-0.7-2-0.7c-1.6-0.5-2.9-0.6-3.8-0.3c0,0.1,0,0.1,0,0.1c1.2,0.2,2,0.6,2.5,1.2c-0.5-0.1-2.3,0-5.4,0.3
		c-3.4,0.2-5.4,0.4-5.8,0.5c-0.2-0.2-0.2-0.3,0.2-0.2c-0.2-0.2-0.1-0.3,0.3-0.2c-0.1-0.3-0.1-0.5,0-0.5c-1.3,0.1-2.4,0.1-3.4,0.1
		c-2.2,0.3-4.2,0.6-6.1,1c0-0.1,0-0.1,0-0.1c0.4-0.2,0.9-0.4,1.4-0.4c-0.1-0.3-0.1-0.6-0.1-0.8c-0.6,0-1.1,0-1.5,0.1
		c-0.8,0-1.6,0.2-2.5,0.6c-0.6,0-1,0.1-1.4,0.2c0.4-0.3,0.7-0.5,0.9-0.6c0-0.4,0-0.7,0-0.8c-0.3-0.1-0.5-0.2-0.5-0.1
		c-1.1,0.1-2,0.4-2.8,0.7c-2,0.4-3.1,0.9-3.4,1.6c-0.1-0.1-0.1-0.1,0-0.1c0-0.2,0.1-0.4,0.2-0.5c0-0.4,0.4-0.7,1-0.9
		c-0.2-0.6-0.2-0.9,0-1.1c-0.3-0.1-0.5-0.1-0.6-0.1c-0.8,0-1.3,0.4-1.7,1.3c-0.7,0.5-1,1-1,1.5c-3.2-1-5.4-1.6-6.8-1.7
		c-0.8,0-1.5,0-2,0.1c0,0,0.4,0.2,1.2,0.6c0.4,0.2,1,0.5,1.8,0.9c-1.2-0.3-3-0.3-5.2,0.2c-2.8,0.2-4.5,0.7-5,1.5
		c0.1-1.2-0.3-1.7-1.2-1.6c-0.9,0-1.6,0.1-2,0.5c-1,0.2-1.8,0.7-2.4,1.5c0-0.1,0-0.1,0-0.1c-0.1-0.6,0-1,0.2-1.1
		c-0.2-0.7-0.7-0.9-1.5-0.7c-0.8-0.1-1.5,0.1-2.2,0.7c-1,0.4-1.4,0.9-1.2,1.5c-0.3,0.1-0.2,0.2,0,0.4c-0.9-0.3-1.6-0.4-2.1-0.6
		c-1.6-0.5-3.1-0.6-4.3-0.4c0.1,0,0.1,0.1,0.2,0.1c0,0,0.1,0,0.1,0.1c0.7,0,1.4,0.1,2,0.4c1,0.2,1.7,0.5,2.1,0.8
		c-4.3,0.4-8.5,0.9-12.5,1.5c0-0.1,0-0.1,0-0.1c0.3-0.2,0.3-0.4,0-0.5c-0.7-0.1-1.2,0-1.6,0.1c-0.5,0-1,0.1-1.4,0.4
		c-0.5,0-0.8,0.2-0.9,0.5c0-0.4,0-0.6-0.1-0.7c-0.2-0.6-0.6-0.8-1.2-0.6c-1-0.1-1.9,0.1-2.6,0.6c-1.2,0.3-1.8,0.9-2,1.6
		c-0.2-0.5-0.4-0.9-0.5-1c-0.7-0.6-1.4-0.7-2.2-0.6c-0.3-0.1-0.6,0-0.9,0.3c-0.3,0.1-0.7,0.5-1.3,1.1c-0.5,0.2-0.7,0.5-0.5,0.9
		c-0.6-0.2-1.2-0.3-2-0.3c-1-0.1-1.6-0.1-2.1,0.1c-0.1,0,0.1,0.3,0.6,0.7c0.4,0.3,0.8,0.5,1.3,0.6c-2.2,0-3.6,0.1-4.2,0.2
		c-1.4,0-3,0.4-4.8,1c-0.1-0.1,0-0.4,0.2-0.7c0-0.4,0-0.5,0.1-0.5c-0.2-0.4-0.6-0.5-1.3-0.3c-0.9,0-1.5,0.1-2,0.4
		c-0.8,0.3-1.4,0.6-1.9,0.9c0-0.6,0-1.1,0.1-1.3c-0.1,0-0.1-0.1-0.2-0.1c-0.4-0.2-0.7-0.2-0.8-0.1c-0.8-0.1-1.3,0.2-1.6,0.7
		c-0.4,0.3-0.6,0.6-0.6,1c0,0.3,0.1,0.5,0.2,0.8c0,0,0.1,0.1,0.2,0.2c-0.1,0-0.2,0-0.2,0c-3.6-0.5-5.7-0.8-6.1-0.9
		c-0.6,0-1.2,0-1.7,0c0.6,0,1.3,0.2,2.3,0.6c2,0.5,3.3,0.9,3.9,1.1c-0.1,0-0.1,0-0.2,0c-1.1,0.2-2.5,0.4-4.3,0.5
		c-1.4,0-2.4,0.1-3,0.2c0-0.1,0-0.1,0-0.1c-0.4-0.2-0.6-0.3-0.6-0.1c-2.6-0.7-4.8-1-6.4-1c-0.3-0.3-0.5-0.3-0.4-0.1
		c-0.8-0.2-1.6-0.1-2.4,0.1c-1.2,0-1.9,0-2,0.1c0.7,0.1,1.3,0.3,2,0.6c1.1,0.2,2,0.3,2.6,0.5c-3.1-0.3-5-0.5-5.7-0.4
		c-1.3-0.1-2.3,0-3,0.5c-0.1-0.5-0.1-0.9,0-1.1c-0.7-0.1-1.3-0.1-1.8-0.1c-0.8,0.2-1.4,0.4-2,0.7c-0.8,0.1-1.3,0.2-1.6,0.5
		c0-0.1,0-0.1,0.1-0.2c0.3-0.3,0.7-0.6,1.2-0.8c0.1-0.1,0.1-0.1,0.2-0.2c0.1-0.1,0.1-0.2,0.2-0.3c-0.1-0.5-0.1-0.7-0.1-0.8
		c0-0.3-0.1-0.5-0.2-0.5c-0.8-0.1-1.4-0.1-1.9,0.2c-0.5,0.1-1,0.3-1.3,0.5c-0.7,0.2-1.3,0.7-1.8,1.3c-0.1-0.1-0.1-0.2,0.1-0.2
		c-0.3-0.4-0.8-0.9-1.4-1.4c-0.2-0.2-0.3-0.2-0.3-0.2c-0.8-0.6-1.6-0.8-2.2-0.7c-0.4-0.2-0.5-0.1-0.4,0.3c-0.1,0-0.2,0.1,0,0.4
		c-0.2-0.1-0.3-0.1-0.1,0.1c-0.1,0,0,0.4,0.2,1.1c0.1,0.3,0.2,0.7,0.3,1.1c-0.7-0.5-1.4-0.8-2.2-0.8c-1.2-0.3-1.9-0.5-2.1-0.7
		c-1.4-0.3-2.7-0.4-3.8-0.4c-0.1,0.1-0.1,0.3,0,0.5c0-0.2,0.9,0.1,2.8,0.8c0.1,0.1,0.2,0.1,0.3,0.2c0.9,0.2,1.6,0.3,2,0.5
		c-0.1,0-0.1,0-0.2,0.1c0-0.1,0,0-0.1,0.2c-0.3-0.1-0.5-0.1-0.6-0.1c-1.2-0.1-4.3-0.2-9.1-0.1c-4.4,0-7.3-0.1-8.6-0.1
		c0.5-0.1,0.9-0.1,1.4-0.2c1.2-0.3,2-0.4,2.4-0.5c-0.2-0.1-0.3-0.2-0.3-0.2h-0.1c-1.1-0.3-2.1-0.4-3-0.3c-1.6-0.1-3.8,0-6.8,0.3
		c-0.9-0.1-1.5-0.1-1.9,0.1c-0.9,0-1.6,0-2,0.2c0.1-0.3,0.3-0.4,0.7-0.3c0.2-0.2,0.3-0.4,0.5-0.7c-0.1-0.2-0.1-0.3-0.1-0.4
		c-0.1-0.5-0.3-0.8-0.6-0.8c-0.1-0.1-0.3-0.1-0.6,0c-0.5-0.1-1.1,0-1.9,0.1c-1.3-0.1-2,0-2.1,0.4c0.1-0.8,0.1-1.4-0.1-1.7
		c-0.6,0.1-1.9,0.3-3.7,0.5c-1.7,0.3-2.3,0.8-1.6,1.6c-0.8-0.3-2.2-0.6-4.3-0.8c-1.6-0.4-3.5-0.6-5.6-0.8c-2.4-0.5-4.4-0.7-5.9-0.6
		c-1.2-0.3-2.1-0.4-2.6-0.3c-0.6-0.1-1.1-0.1-1.3,0l0.1,0.1c9.8,1.3,15.6,2.3,17.5,2.9c0.1-0.1,0.3,0,0.4,0.2
		c-0.2-0.2-0.3-0.2-0.1,0c-6-0.5-11.9-0.8-17.6-0.9c-4.6-0.3-9.2-0.4-13.8-0.4c-0.3-0.2-0.4-0.2-0.4,0c-0.7,0-1.3,0-1.7,0
		c-0.6-0.2-0.9-0.2-1.1-0.1c-3.2-0.1-6.2,0-9.1,0.1c-0.4-0.1-0.5-0.1-0.5,0c-0.2-0.1-0.3-0.2-0.4,0c-3.6,0-6.9,0.2-9.9,0.5
		c-2.8,0.1-5.3,0.3-7.6,0.7c-2.5,0.2-4.6,0.5-6.5,1c-0.4,0-0.7,0.1-1,0.2c-2.9-0.4-5.6-0.5-8.1-0.3c-0.6-0.3-1-0.3-1.2-0.1
		c-4.5-0.2-8.3-0.3-11.5-0.3c-3.5-0.3-6.3-0.3-8.5-0.2c-0.8,0-1.4,0-1.9,0c-5.9-0.1-11.5-0.4-16.6-0.8c0.2-0.2,0.8-0.3,1.6-0.1
		c0.9-0.2,1.7-0.4,2.5-0.7c-1.5-0.1-2.8-0.2-3.9-0.4c-0.6,0.1-1.2,0.2-1.6,0.3c-0.2-0.1-0.3-0.1-0.3-0.1c0.1-0.1,0.3-0.2,0.6-0.3
		c0.5-0.6,0.8-1.1,1.1-1.4c-1,0.1-1.5,0.1-2.5,0.2c-1.5,0-2.4,0.4-2.8,0.9c0-0.3,0.1-0.5,0.1-0.6c0-0.3,0-0.5,0.1-0.4
		c-0.1-0.3-0.2-0.5-0.3-0.5c-0.9-0.1-1.9-0.1-2.8,0.1c-1,0.1-1.8,0.3-2.4,0.5c0.2-1.1,0.2-1.9,0-2.3c-1.4-0.3-2.1-0.2-2.4,0.3
		c-0.5-0.1-0.8,0.4-1,1.4c-0.5-0.7-1.3-1.1-2.2-1.4c-1.2-0.6-2.2-0.8-3-0.8c-0.3-0.2-0.7-0.2-1.2,0.1c-0.7-0.2-1.2-0.2-1.4,0.1
		c0,0.6,0.9,1.1,2.4,1.5c0.7,0.2,1.7,0.5,3.1,0.8c-1.2-0.2-2.2-0.3-3.1-0.3c-2.2-0.4-4.5-0.7-6.8-0.7c-4-0.5-7.3-0.8-10-1
		c-2.2-0.3-4-0.4-5.4-0.2c-3.9-0.2-6.8-0.6-8.7-1.2c-15.3-0.8-30.6-1.2-45.9-1.2c0-0.2,0-0.4,0.1-0.4c-0.3-0.2-0.6-0.3-0.9-0.2
		c-11-0.9-18.1-1.5-21.3-2.2s-7.2-1.3-12-1.7c-2.2-0.3-4.2-0.3-6.2-0.2c-3.4-0.2-10.1-1-20.1-2.1c-5.6-0.7-10.4-1-14.4-0.8
		c-3.7,0-6.7,0.2-9,0.5c-4,0.4-11.1,1.1-21.6,2.5c-5.7,0.6-12.3,1.6-19.9,3.2c-5.8,1.2-11.7,2.5-17.6,4.1c0,8.9,0,13.3,0,22.2
		c0,0,0.1,0,0.1,0c0,8.6,0,13.9,0,22.9v0.9V491h1024l-0.1-132.5c0,0,0.1,0,0.1,0c0-9.6,0-15,0-23.8c0-8.9,0-13.3,0.4-22.5
		C1228.9,312.6,1227.7,312.9,1226.6,313.1z"/>
</g>
<g>
	<path fill="#70A742" d="M1230,334.7c-1.8,0-3,0-3.8-0.3c-0.7,0.1-1.2,0.1-1.7,0.1c0,0,0,0,0,0.1c-0.1,0-0.1,0-0.2,0
		c-0.1,0.1-0.1,0-0.1,0l-0.1,0.1c-12.6,1-25.2,1.7-37.8,2c-3.8,0-9,0.5-15.7,1.6c-0.9,0-3.1,0.4-6.7,1.2c-0.9,0.2-1.9,0.4-3,0.6V340
		c0-1.5,0-2.2,0-3.7c-2.4,0.8-4.2,1.7-5.4,2.6c0.6-1.7,0.5-3.1-0.2-4.1c-0.9,1.1-1.8,2.5-2.6,4.1c-0.1,0.3-0.2,0.5-0.3,0.7
		c-0.8,1.5-1.2,2.4-1.3,2.8c0-0.1,0-0.2,0-0.4c0-0.1-0.2-0.9-0.4-2.3c-0.1-0.4-0.2-0.9-0.3-1.3c-0.5-2.4-0.7-4-0.7-4.7
		c0-0.2,0.1-0.3,0.2-0.5c-1.3,2-2.4,4-3.1,6.1c-0.1,0.1-0.2,0.3-0.2,0.4c-0.7,2.1-1.1,3.5-1.2,4.3c-1-1.2-1.9-2-2.5-2.6
		c-0.3-0.3-0.6-0.6-0.9-0.8c-0.8-0.4-3,0.3-6.8,2.1c0,0.1-0.1,0.2-0.1,0.2c0.2,0.2,0.8,1.5,1.9,3.9c0.3,0.6,0.6,1.1,0.9,1.5
		c-1.6,0.3-3.6,0.6-6,1c-1.7,0.2-3.3,0.5-5,0.8c-0.2,0.1-0.5,0.1-0.8,0.2c-0.6,0.1-1.2,0.2-1.7,0.3c-0.3,0-0.5,0.1-0.7,0.1
		c-4.3,0.2-7.2,0.5-8.5,0.8c-8.9-0.7-17.1-1.3-24.6-1.4c-1.1,0-1.8,0.1-2.2,0.4c-0.8,0-1.7,0.5-2.6,1.5c-0.3-0.5-0.4-1.2-0.5-2.2
		c-0.5-1.2-0.7-2-0.6-2.3c-1.7-0.1-3.7,0.7-6,2.1c-2,0.8-3.1,1.5-3.5,2.1c-0.2-0.7-0.7-1.7-1.5-3.1c-1.1-1.6-1.9-2.4-2.4-2.3
		c-1.2-0.2-1.8-0.1-1.8,0.3c-0.1,0-0.1,0.1-0.1,0.3c-0.1,1.2-0.1,2.5,0,3.9c-0.3-0.1-0.7-0.3-1-0.4c-0.3-0.3-0.6-0.4-0.8-0.3
		c0.3,0.1,0.5,0.3,0.7,0.8c0.1,0.1,0.1,0.4,0.2,1.1c-1.1-0.8-2.1-1.4-3-1.8c-2.2-0.9-4.1-1.4-5.8-1.4c-4.8-0.2-9.7-0.5-14.5-0.8
		c-0.2,0.2,0,0.4,0.5,0.6c0.2,0.3,0.4,0.5,0.4,0.8c1.3,0,4.5,1.3,9.7,3.7c5.4,2.5,8.7,3.7,9.8,3.9c-1-0.1-2-0.1-3-0.1
		c-2.7-0.6-5.8-1.1-9.2-1.5c-7-1.1-12.6-1.9-16.9-2.2c-1.6-0.2-5-0.3-10.1-0.4c-5.1-0.3-8.8-0.3-11-0.1c0,0,0,0.1,0,0.1
		c-0.3-0.2-0.6-0.2-0.9-0.1c0.2-0.2,0.6-0.2,0.9-0.1c0.2-0.7,0.6-1.3,1.2-2c0.3-1,0.5-1.9,0.5-2.4c-2.7-0.4-5.2-0.6-7.7-0.8
		c-0.5,0.1-1.3,0.4-2.5,0.9c-1.7,0.4-2.8,0.8-3.3,1.2c-0.1-2-0.2-3.3-0.4-3.9c-0.6-1.2-1.8-1.9-3.7-1.9c-1.2-0.3-2.7,0.1-4.3,1
		c-1.6,0.7-2.6,1.4-3.2,2.3c-3.9-1.9-7.4-3.6-10.7-5.1c-5.4-2.5-9.3-4.2-11.5-4.9c1.5,1,3.9,2.3,7.2,3.9c1.2,0.5,3.8,1.8,7.8,3.8
		c-0.2-0.1-0.4-0.1-0.6,0c-3.8-1.7-9-3.4-15.8-5.2c-10.7-3-21.5-4.7-32.4-6.3c-2.2-0.5-4.6-0.6-7-0.5c-3.8-0.4-7.8-0.3-12,0.1
		c-5.8,0.1-9.8,0.6-12,1.4c1.6-1.1,2.8-2.1,3.6-3.1c0.6-1.1,1.2-2.2,1.8-3.3c-1.4-0.5-4.4-0.2-9.1,0.8c-3.3,0.6-6,1.2-8.1,1.8
		c-0.2-0.8,0.3-2,1.5-3.5c0.8-1.8,1.2-2.8,1.2-3c-3.2-0.2-6,0.4-8.4,1.6c-2.8,1.3-3.8,2.9-2.8,4.6c-6.4-2.3-12-4.3-16.9-5.8
		c-9.5-3-16.5-4.8-21-5.1c-1.1-0.1-2.2-0.2-3.3,0c-1.4,0-2.2,0.1-2.5,0.2c1.5,0.1,6.2,1.4,14,3.7c3.2,0.9,6,1.6,8.4,2.2
		c-5.2-1-13.4-2-24.5-3.2c-13-1.5-20.8-2.3-23.6-2.3c-22-1.7-43.8-0.1-65.7,2.9c-4,0.5-8,1.2-12.2,2.3c-0.2-0.2-0.3-0.3-0.3-0.1
		c-1.5-0.3-2.9-0.4-4.2-0.3c-1.2-0.2-2.2-0.3-3.1-0.1c-0.3,0-1.5,0-3.8,0c0.5-0.1,0.9-0.1,1.1-0.1c-0.4-0.1-0.6-0.1-0.8,0
		c-3.4-0.2-5-0.2-4.9-0.1c-4.8,0-10,0.3-15.5,0.9c-1.3,0-2.6,0.1-3.8,0.5c-7.7,1-12.8,2.6-15,4.8c0.5,0.3,1.3,0.8,2.4,1.4
		c0.5,0.1,1.3,0.4,2.4,0.8c-3.3,0.2-6.4,0.5-9.3,0.9c-3.3,0-6.3,0.3-9.2,0.9h-0.1c-1.2-0.1-2.3,0-3.2,0.3c-2,0-3.8,0.2-5.6,0.5
		c-2.1,0-4.2,0.2-6.2,0.5c-9.9,0.6-19.9,0.9-29.8,1.1c-3.2-0.1-6.3,0-9.4,0.2c-1-0.2-1.9-0.2-2.5,0c-2.3-0.1-4.7-0.1-7.1,0h-0.1
		c-2.5,0-4.8,0-7,0.1c-3.7-0.3-7.4-0.3-11-0.1c-4.3-0.1-8.6-0.1-12.8-0.1c-2.1-0.2-4.2-0.2-6.1,0c-3.9-0.3-7.6-0.3-11.1-0.1
		c-1.1,0.2-2,0.5-2.5,0.9c-2.1,0.7-3.1,1.5-3,2.3c-0.7-0.1-1.3-0.1-1.8-0.1c-0.4-0.2-0.6-0.4-0.7-0.4c-0.8-0.4-1.4-0.8-1.7-1.2
		c-0.6-0.5-1-0.7-1.1-0.6c-1.1-0.3-2.1,0.1-3,1.4c-0.3,0.1-0.3,0.2-0.2,0.3c-0.4-0.1-0.7-0.1-1-0.1c-0.1,0.1-0.1,0.4-0.1,0.8
		c-0.1-0.4-0.2-0.6-0.2-0.9c-0.3-0.1-0.5-0.1-0.8,0c-0.3-0.9-0.6-1.6-0.7-2.1c-1.8-0.1-3.4,0-4.9,0.1c-1.1-0.1-2.1,0-3.1,0.1
		c-3.6-1-7.2-1.8-10.8-2.4c-1.2-0.3-2.3-0.6-3.5-0.8c-11.6-2.5-23.3-4-35-5.5c-3.9-0.6-7.5-1-10.9-1.3c-0.3-0.2-0.3-0.1-0.1,0.1
		c-0.7-0.3-1.1-0.4-1.2-0.3c-1.1-0.2-2.2-0.4-3.2-0.5c-1.7-0.3-4.3-0.7-7.9-1c-3.5-0.4-6.2-0.8-8.1-1.1c-2.6-0.6-8.1-1.4-16.4-2.3
		c-7.9-1.1-11.9-1.5-12-1.4c-0.1,0-3.4,0.1-9.8,0.4c-0.3-0.1-0.4-0.1-0.4-0.1c0-0.2,0.2-0.4,0.4-0.8c0-0.1-0.2-0.2-0.5-0.1
		c-0.5-0.2-0.8-0.3-1.1-0.3c-1-0.2-2.4-0.1-4.2,0.3c-1.5,0.3-2.6,0.5-3.2,0.6c0.1-0.4,0.2-0.5,0.4-0.5c0.2-0.4,0.4-0.6,0.6-0.6
		c-0.2-0.8-0.1-1.5,0.2-2c-1.4-0.2-2.7,0-3.8,0.6c-0.3-0.1-1.4,0.5-3.3,1.7c-0.1-1.1-1.2-2.1-3.5-2.9c-2.8-1.4-4.7-2.1-5.7-2.2
		c-1.4-0.3-2.7-0.4-3.8-0.3c-0.4,0.9,0.6,1.5,2.8,2c0,0.1,0.3,0.2,0.7,0.2c0.5,0.1,1.1,0.2,1.9,0.4c0.9,0.1,1.6,0.3,2,0.8
		c-1.3-0.1-2.4-0.1-3.4-0.1c-6.6-0.4-11.7-0.6-15.4-0.7c-5.5,0-9.1,0.1-10.8,0.3c-1.2,0-1.7,0-1.5,0.2c-0.8,0-3.1-0.1-7.1-0.1
		c-5.2-0.1-12.7-0.2-22.7,0c-2.4,0.1-3.9,0.2-4.5,0.4c-1.4,0.1-3,0.7-5,1.7c0.5-0.7,0.8-1,1-1c-0.1-0.3-0.1-0.5,0.1-0.6
		c-2,0-3.9,0.2-5.8,0.5c-1,0.2-1.9,0.6-2.5,1.1c-0.3,0-0.4,0-0.5,0.1c0.1-0.4,0.3-0.6,0.6-0.8c-0.1-1-0.1-1.9,0.1-2.6
		c-1-0.2-2,0.1-3,1.1c-1.1,0.5-1.9,1.3-2.5,2.4c-0.8-1.3-1.2-2.2-1.4-2.7c-0.7-1.3-1.3-1.8-1.6-1.4c-1.4,0.1-2.2,0.7-2.5,1.8
		c-0.3,0.5-0.5,1.8-0.5,3.7c-0.4-0.1-0.5-0.1-0.5,0.1c-0.3-0.7-2.2-2.2-5.8-4.3c-3.6-2.3-5.6-3.5-6-3.5c0.1,0.3,1.2,1.4,3.2,3.3
		c0.7,0.8,1.5,1.5,2.1,2.2c-0.1-0.1-0.1-0.1-0.2,0c-0.5,0-1.8,0.2-4,0.5c-1.4-0.1-4,0.1-8,0.7c-3.8-0.1-5.7,0-5.7,0.1
		c-1.8,0.2-3.6,1.1-5.3,2.8c0-0.6,0.1-0.8,0.4-0.7c0.1-0.6,0.3-1,0.5-1.4c0-1.3-0.3-2.2-0.9-2.8c-1.5,0.2-3.7,1.5-6.5,4.2
		c-0.4-1.1-0.7-1.8-1-2.2c-0.8-1.1-1.8-1.7-3-1.6c-0.1,0.9-0.2,1.8-0.2,2.9c0.2,0,0.3,0.3,0.4,1.1c0,0.3,0.1,0.7,0.4,1.2
		c-0.3-0.3-0.5-0.5-0.5-0.4c-0.3-0.4-1.9-1.2-4.9-2.4c-3-1.6-4.6-2.4-4.9-2.5c-0.1,0.1-0.1,0.2,0,0.4c2.1,2.3,3.6,3.6,4.6,4
		c-0.2,0.1-0.4,0.1-0.5,0.1c-1.7-0.5-3-0.7-3.9-0.8c-2.1-0.4-4.3-0.2-6.7,0.6c-1.5,0.1-3.2,0.8-5.2,2.1c-1.9,0.8-3.3,1.8-4.2,2.8
		c0-0.2,0-0.3,0.1-0.5c2.9-2.4,4.4-3.9,4.6-4.8c0-0.9-0.3-1.3-0.9-1.4c-1-0.4-2.2-0.3-3.6,0.3c-1.9,0.4-3.5,1.1-4.9,2.2
		c-1.8,1.2-2.8,2.6-3,4.2c0.2-1.9,0.4-3.2,0.5-3.8c0-1.9,0.1-3.2,0.1-4c-1.8,0.7-3.2,2-4.3,4.1c-0.7,1-1.5,2.5-2.4,4.5
		c0-0.3-0.1-0.4-0.2-0.2c-0.2,0-0.3,0-0.3,0c-0.5-1.3-0.9-2.3-1.2-3.1c-0.9-1.6-2-2.1-3.3-1.6c-1.3,0.2-2,0.6-2,1
		c-0.3,0.2-0.4,0.7-0.1,1.5c-0.2,0.1,0.1,0.8,0.9,2c0.6,1.3,0.8,2.4,0.8,3.6c-0.3,0.1-0.4,0.1-0.6,0.2c-2.3-1.4-4.1-2.4-5.5-2.9
		c-2.6-1.2-5.1-1.1-7.3,0.1c0.5,0.7,1.6,1.5,3.4,2.4c0.1-0.1,1.3,0.5,3.7,1.9c-3,0.1-5.9,0.4-8.7,0.8c-0.6,0.1-1.2,0.2-1.8,0.3
		c0,10.2,0,15.4,0,25.2v0.9V491h1024l-0.1-130.2c0,0,0.1,0,0.1,0C1230,350.4,1230,345.1,1230,334.7z"/>
</g>
<g>
	<path fill="none" d="M1048.4,383.7C1048.4,383.7,1048.4,383.7,1048.4,383.7C1048.4,383.7,1048.4,383.7,1048.4,383.7
		C1048.4,383.7,1048.4,383.7,1048.4,383.7z"/>
	<path fill="none" d="M1048.4,383.7c-0.1,0-0.2-0.1-0.2-0.1c0,0.1,0,0.3,0.2,0.6C1048.4,384,1048.4,383.9,1048.4,383.7z"/>
	<path fill="none" d="M1048.4,383.4C1048.4,383.4,1048.4,383.4,1048.4,383.4c0,0.1,0,0.2,0,0.2
		C1048.4,383.6,1048.4,383.5,1048.4,383.4z"/>
	<path fill="#48853E" d="M1048.4,383.6c0-0.1,0-0.2,0-0.2c0,0-0.1,0-0.2,0c0,0-0.1,0.1-0.1,0.2
		C1048.2,383.6,1048.3,383.6,1048.4,383.6C1048.4,383.7,1048.4,383.7,1048.4,383.6z"/>
	<path fill="#48853E" d="M206,491h1024l-0.1-130.3c-1.5,0.3-3.3,0.5-5.3,0.6c-0.2,0-0.4,0-0.6,0c0,0,0,0,0,0.1c-0.3,0-0.7,0-1.1,0.1
		c-4.8,0.6-9.9,1.3-15.4,1.9c-0.9,0.1-1.7,0.2-2.6,0.3c-11.9,1.1-20.3,1.6-25.4,2.3c-1.8,0.3-3.2,0.6-4.2,0.9
		c-0.6,0-1.2,0.1-1.8,0.2c-0.8,0.2-1.5,0.3-2.3,0.4c1.8-1.7,2.9-3.4,3.4-5.2c-0.1,0.1-0.1,0.1-0.2,0.1c-0.4-0.1-0.9,0-1.6,0.1
		c-0.4,0.1-2,0.5-4.7,1.2c-3,1.1-4.9,1.7-5.6,1.9c2.4-2.1,3.6-3.8,3.6-5.2c0-0.3,0-0.4,0-0.7c-0.5,0.7-1.5,1.5-2.9,2.5
		c-1.7,1.1-3.1,1.8-4.2,2.1c0-0.2,0.1-0.3,0.2-0.3c0.1-0.4,0.8-2.7,2.1-6.7c0-0.6,0-0.9,0-1.6c-0.1,0-0.1,0-0.2,0
		c-2.8,4.2-4.3,7-4.5,8.4c0-0.1,0-0.1,0-0.2c0-0.5-0.3-1.5-0.8-2.9c-0.6-1.6-1.3-2.7-2-3.3c-0.6,2-0.9,3.3-0.9,3.8
		c0.5,2.6,0.7,4.1,0.7,4.3c-1.2-0.8-2.3-1.5-3.2-2.1c-1.8-1.1-3.3-1.6-4.6-1.3c-0.7,0.4-1.1,0.5-1.4,0.6c0,0.4,0.5,1.3,1.5,2.5
		c-8.1-0.6-14.3-1.2-18.4-1.6c-5.7-0.7-10.9-1.3-15.6-1.9c-16.9,2.1-34.8,6.2-48.8,19c-0.4-1.3-1.2-2.4-2.2-3.1
		c-1.2-1-2.7-1.5-4.5-1.5c-3.2-0.1-5.4,0.4-6.7,1.6c-1.3,1.2-1.8,3-1.3,5.4c0,0,0,0,0,0c0,0.1,0,0.2,0,0.2c0,0,0,0,0,0.1
		c0,0,0,0,0,0c0,0.2,0,0.3-0.1,0.5c-0.1-0.3-0.2-0.5-0.2-0.6c-0.8-0.4-1.3-0.7-1.7-0.9c-1.1-0.7-1.9-1.5-2.5-2.2
		c-2.5,0-4.8-0.2-6.8-0.3c0.1,1.2,1.2,2.8,3.3,5c0.7,0.9,2.1,2.1,4.3,3.8c-2.1-0.1-4-0.2-5.8-0.2c-6.3-2.3-10.3-3.7-12.1-4.3
		c-3.6-1.3-6-2-7.2-2.1c0.6,1,1.7,2.3,3.3,3.9c0.8,0.8,2.2,2,4,3.7c3,2.8,4.1,5.3,3.2,7.3c-4.3,0-8.3-2.1-11.9-6.2
		c-1.9-2.3-3.2-3.8-3.8-4.5c-1.4-1.4-2.6-2.2-3.7-2.2c-1.7-0.3-4.1,0.1-7.2,1.1c-3.3,0.7-5.4,1.1-6.2,1.2
		c-1.6-5.1-5.4-9.8-11.4-14.4c-2.4-1.9-4.8-3.4-7-4.5c-2.4-1.3-4.1-1.9-5.1-1.9c-1.4-0.3-3,0.2-4.7,1.2c-0.8,0.5-2,1.4-3.5,2.7
		c-1.1-2.1-4.1-4.8-9-8.2c-5.6-3.8-10.1-5.9-13.4-6.2c-3.5-0.6-5.3-0.2-5.5,1.1c-0.3,0.1-0.3,0.8-0.2,2c-0.1,1.3-0.1,2.3,0,3.1
		c-3.3-2.9-5.2-4.6-5.8-5c-0.8-0.6-1.4-1-1.9-1.1c-2.5-1.7-5.1-2.6-7.8-2.7c-1.5-0.4-2.4-0.5-2.7-0.1c-0.2-0.1-0.9,0.5-2,1.7
		c2,1.8,5,3.9,9.1,6.4c1.4,0.6,2.6,1.3,3.7,2c1.7,0.8,2.9,1.3,3.7,1.6c-0.3-0.1-0.7-0.1-1-0.2c-1-0.5-2-0.9-2.8-1.1
		c-2.6-1.1-5.3-2.1-8-3c-7.9-2.9-13.8-4.6-17.7-5.1c-3.9-0.7-7.9-0.2-12,1.5c-3.5,1.1-5.6,2.3-6.5,3.7c0.8-2.2,0.8-4.7,0.2-7.5
		c-1.4-3.4-3.3-5.2-5.8-5.3c-2.5-0.5-4.9,0.4-7,2.9c-1,0.6-1.8,1.5-2.2,2.6c-0.5,0.6-0.8,1.1-0.8,1.5c-0.2-1.4-0.8-3.9-2-7.5
		c-1.3-4.3-2-6.6-2.1-7.1c-1.3-0.4-2.7-0.5-4-0.5c-1,0.7-2.2,2.2-3.4,4.4c-0.9,1-1.6,2.2-2.1,3.6c-1.4-0.5-3.3-1.6-5.8-3.3
		c-2.7-2-4.7-3.1-5.8-3.3c-0.1,0.3-0.1,0.8,0,1.5c1.1,1.1,2.5,2.3,4.4,3.5c2.2,1.3,3.6,2.2,4.2,2.7c-1.7-1.1-4.9-1.8-9.6-2
		c-4.9-0.6-10.3-0.6-16.3-0.1c-6.4,0.1-11.9,0.6-16.4,1.4c-5.1,0.6-8.2,1.4-9.3,2.6c-0.1-0.4-0.1-0.6,0-0.7c0-0.3,0.9-1.3,2.8-3
		c1.8-2.3,3.1-3.7,3.8-4.1c-0.1-1.4-0.1-2.7,0-3.7c-1.8-0.3-4.2,0.5-7.1,2.3c-3.4,1.5-5.2,3.1-5.3,4.7c-0.2-0.7-0.5-2.7-1-6.1
		c-0.6-3.4-0.9-5.7-1-7c-2.9-0.8-6,0.5-9.4,3.8c-1.4,1.2-2.5,2.5-3.5,4.1c-0.9,1.1-1.4,2.1-1.5,2.9c-0.1-0.5-0.3-0.7-0.5-0.7
		c-0.4-0.1-0.5-0.2-0.5-0.2c-4.5-3.9-9-7.5-13.4-10.8c-2.1-0.2-4.1-0.3-5.8-0.3c0,1.2,0,2.5,0.1,4c0.6,0.1,1.6,0.7,3.1,1.7
		c1.5,0.9,2.7,1.6,3.5,2.2c-1.9-0.4-5.5-0.5-10.9-0.3c-5.6-0.1-8.7-0.2-9.2-0.2c-4.6-0.3-7.8-0.8-9.4-1.5c-0.8-0.5-1.4-0.8-1.6-0.8
		c-0.6-0.4-1.3-0.5-1.9-0.4c-3.9-0.4-10.1,1.5-18.6,5.5c-5.8,2.2-8.7,3.5-8.9,3.8c-3.1,1.1-5.1,1.6-6.2,1.6c-1-0.1-1.6-0.3-1.9-0.4
		c-0.6-0.4-0.9-0.5-0.9-0.4c-0.8-2.1,1-4.2,5.2-6.5c0.9-1,2.5-1.8,4.6-2.6c1.6-1,2.6-1.6,3-1.6c-10.3-0.2-20.6-0.1-30.9,0.1
		c-11.9,0.3-23.7,1.6-35.4,3.3c-11.2,1.2-22.4,2.7-33.6,4.2c-4.2,0.2-8.4,0.7-12.5,1.5c-1.6,0.2-3.1,0.5-4.5,0.7
		c-10.6-1.5-21.3-2.8-31.9-3.7c-1.6-0.3-3-0.5-4.1-0.4c-1-0.1-1.9-0.2-2.6-0.2c-0.4-0.2-0.6-0.4-0.7-0.4c-0.8-0.4-1.4-0.8-1.7-1.2
		c-0.6-0.5-1-0.7-1.1-0.6c-1.1-0.3-2.1,0.1-3,1.4c-0.3,0.1-0.3,0.2-0.2,0.3c-0.4-0.1-0.7-0.1-1-0.1c-0.1,0.1-0.1,0.4-0.1,0.8
		c-0.1-0.4-0.2-0.6-0.2-0.9c-0.3-0.1-0.6-0.1-0.9,0c-8.4-0.9-16.2-1.4-23.4-1.5c-10.3-0.4-20.6-0.9-30.9,0.3
		c-8.5,0.6-12.6,2-12.5,4.1c-2.5-1.7-4.1-2.7-4.6-3c-0.7-0.5-1.6-0.7-2.6-0.7c-1.9-0.2-3.3-0.2-4.2-0.2c-1.8,0.2-3.4,0.6-4.6,1.2
		c0-1,0.1-2.1,0.4-3.1c-1.3-0.2-2.7-0.2-4-0.3c-0.4,0.1-1.2,0.4-2.5,1c-0.9,0.2-1.4,0.5-1.6,0.7c-0.1-1.1-0.5-2.1-1.4-2.9
		c-1.1-1.1-2.1-1.5-2.9-1.4c-1.7-0.3-3,0-4,0.9c-0.3-0.1-1.4,0.8-3.4,2.7c-2-1.5-3.7-2.4-5-2.7c-0.7-0.2-2.3-0.3-4.8-0.5
		c-1.4-0.2-2.2-0.2-2.6,0c-0.8-0.2-1.4-0.1-1.8,0.4c0.2-0.1,0.5-0.1,0.8,0.2c0,0.1,0,0.2,0.1,0.3c-0.1,0,1.3,0.6,4.1,1.8
		c1.5,0.6,2.9,1,4.2,1.2c-0.5,0-0.9,0-1,0c-1.2-0.3-3.6-0.8-7.4-1.4c-3.9-1.1-7-1.5-9.2-1.4c-2.8-0.3-5.8,0-9,0.8
		c-1.1,0.2-2.2,0.5-3.3,0.8c0.7-1.4,0.9-2.8,0.5-4.3c-0.8,0.1-1.7,0.2-2.6,0.4c-1.2,0-1.9,0.1-2.1,0.2c0-0.7,0-1.2,0-1.5
		c-0.1-1-0.3-1.9-0.6-2.6c-0.6-0.1-1.3-0.2-1.9-0.1c-1.1,0.4-2.1,0.9-2.9,1.7c-0.6,0.1-1,0.6-1.3,1.2c-0.7-2-4.7-3.9-11.9-5.5
		c-1.6-0.1-3.2,0.1-4.8,0.6c2.3,0.8,4.6,1.6,7.1,2.2c0.6,0.2,1.5,0.6,2.5,1.3c-2.9-0.5-9.8-1.1-20.5-1.6c-10.7-0.5-21.4-0.6-32,0.3
		c-2.9,0.1-7.6,0.8-14.2,2.1c-8.2,1.2-13.2,2.5-15,3.6c0.1-0.1,0.6-0.4,1.5-0.8c0.2-0.3,0.5-0.6,0.6-0.8c-0.5-0.1-0.8-0.1-0.9-0.2
		c0-0.3,0-0.4,0-0.4c-2.1,0.2-4.1,0.5-5.8,0.8c-0.7,0.3-1.6,1.1-2.8,2.2c-1.4,0.8-2.2,1.6-2.4,2.2c0-1.5,0-2.7,0.1-3.4
		c-0.1-1.1-0.3-1.9-0.6-2.5c-1.4,0-2.7,0.2-4,0.6c-2.3,1.8-3.6,3-3.8,3.6c-0.2,0.1-0.3,0.4-0.4,0.7c-0.2-0.6-0.6-1.2-1-1.8
		c-1-1.5-1.9-2.5-2.7-3.1c-0.8-0.5-1.5-0.7-2.1-0.6c-0.2,0-0.3,0-0.4,0.1c-0.6,0.2-0.9,0.7-0.9,1.3c0,1.4,0.3,3.1,0.8,5.1
		c0.1,0.5,0.4,1.5,0.8,3.2c0,0.1,0,0.1,0,0.2c-3.3,0.8-8.8,2.2-16.4,4.3c-7.7,2.2-12.5,3.6-14.3,4c-13.3,3.3-26.7,6.4-40.1,9.2
		c-2.4,0.4-4.9,0.8-7.6,1.3V491z"/>
</g>
<path fill="#1B5C2E" d="M1230,371.5c0,47.3,0,119.5,0,119.5H206c0,0,0-72.3,0-119.5c11.9-3,24-5,36.1-4.9c22.9-2.2,45.7-8,68.2-13.6
	c-2.3,0-4.4-0.3-6.2-1.1c1.3-1.1,4.1-2,8.4-2.8c4-1.1,8.6-1.9,14-2.6c7.1-0.8,15-0.9,23.6-0.4c2.6,0.1,5.5,0.4,8.6,0.8
	c1.2,0.1,2.5,0.2,4,0.4c0.4,0.1,0.8,0.1,1.1,0.2c0-0.1,0-0.2,0-0.3c0.2-0.5,1.1-1.2,2.6-2.1c2.2-1.3,4-2.3,5.5-3.1
	c2.4-0.8,4.4-0.9,6-0.3c0.6,1.5,0.5,3-0.3,4.5c-0.1,0.2-0.1,0.3-0.2,0.4c0.2-0.1,0.4-0.3,0.7-0.4c0.9-0.5,2.3-0.9,4.1-1.3
	c1.7-0.8,2.7-1.1,3.2-0.8c1.9-0.1,3.1,0.4,3.6,1.5c0.1,0.1,0.1,0.2,0.1,0.4c0,0.5,0,1.2-0.1,2c-0.1,0.3-0.1,0.7-0.2,1
	c0.3-0.4,0.7-0.8,1.1-1.1c1-0.7,2.2-1.1,3.8-1.4c0.8-0.1,2.9-0.2,6.4-0.2c2.1-0.2,3.8-0.2,5.1,0.2c0.7,0,1.7,0.2,2.9,0.6
	c0.1,0,0.3,0.1,0.5,0.1c0.9,0.3,1.9,0.5,2.8,0.7c1.5,0,3.4,0.1,5.9,0.4c3.7,0,7.4,0,11.1,0c-0.4-0.4-0.8-0.8-1-1.2
	c-0.6-0.8-0.9-1.5-0.9-2.3c0.3,0.1,0.6,0.2,0.9,0.3c1.5,0.5,2.6,1.1,3.1,1.9c0.4,0,0.7,0,1,0.1c-0.3-0.7-0.2-1.3,0.1-1.9
	c0.4-0.1,0.9,0.6,1.5,2c0,0.1,0.1,0.2,0.1,0.3c0-0.1,0-0.2,0-0.3c0-1.4,0.1-2.2,0.4-2.3c0.5,0.2,0.9,0.7,1.1,1.5
	c0.2,0.3,0.4,0.6,0.5,0.9c0,0.3,0,0.5,0,0.7c0.3-0.2,0.7-0.5,1.1-0.7c0.8-0.4,1.8-0.7,3-1c1.5-0.5,3.1-0.8,4.9-0.7
	c0.3,0.2,0.5,0.6,0.6,1.2c-0.1,0.1-0.1,0.3-0.1,0.6s0,0.7,0,1.2c0,0.1,0,0.3,0,0.4c1.5-0.3,3.9-0.8,7.3-1.4c0.1,0,0.1,0,0.2-0.1
	c2.8-0.4,5-0.6,6.7-0.5c0.4-0.1,0.9-0.1,1.3,0.1c0.4,0.1,1,0.4,1.5,0.9c0.1,0.1,0.3,0.3,0.5,0.4c0.2,0,1.1-0.1,2.8-0.2
	c1.2-0.1,2.8-0.2,4.9-0.4c4.5-0.5,6.8-0.7,7-0.5c1.2-0.1,3.1,0.2,5.7,1c1.8,0.4,3.2,0.8,4,1c-1.1-0.3-1.8-0.7-2.3-1
	c-1-0.5-1.4-0.9-1.1-1.3c0.1-0.1,0.2-0.3,0.5-0.4c1.4,0.1,3,0.2,4.9,0.4c0.4,0.2,0.7,0.3,1,0.5c0.9,0.5,1.8,1,2.5,1.6
	c0.6,0.5,1.1,0.8,1.5,1.1c0.8,0.6,1.2,0.9,1.3,0.9c0.3,0,0.7,0.1,1,0.1c0-0.3,0.1-0.5,0.4-0.8c0.4-0.6,1.2-1,2.3-1.3
	c1.1-0.5,2.1-0.6,3-0.4c1.5,0,2.6,0.3,3.2,0.9c0.3,0.2,0.4,0.3,0.7,0.6c0.3,0.3,0.7,0.6,1.2,0.9c1-0.8,3-1,6-0.6
	c0.9,0,2.2,0.1,3.9,0.5c1.4,0.2,2.6,0.3,3.7,0.3c-0.1,0-1.4-0.4-3.9-1.1c-0.3-0.1-0.5-0.2-0.8-0.3c-1.2-0.5-2.1-0.8-2.8-1
	c0-0.1,0-0.2,0-0.3c1.5,0,3.1,0.2,4.8,0.5c0.2,0.1,0.7,0.3,1.4,0.7c0.3,0.1,0.6,0.3,0.9,0.5c0.2,0.2,0.3,0.4,0.5,0.6
	c0.3,0,0.6,0.1,0.9,0.1c0-0.2,0-0.4,0-0.6c0-0.6,0.1-1,0.4-1.2c0-0.7,0.4-1.3,1-1.7c1.2,0.4,2.4,1.2,3.4,2.5c0.3,0.4,0.6,0.7,0.8,1
	c0.5,0.6,0.9,1,1.1,1.1c0-0.4,0.1-0.7,0.2-0.9c0.3-0.9,1.1-1.5,2.4-1.8c1.5-0.5,3.4-0.6,5.6-0.3c2.3,0.2,3.8,0.5,4.5,0.8
	c1.5,0.4,2.9,1.3,4,2.7c0-0.1,0.1-0.1,0.5,0.1c0.1,0.1,0.3,0.2,0.5,0.5c0.3-1,1.6-1.6,4-1.8c2.1-0.5,4.2-0.5,6.5-0.1
	c1.3,0.1,2.9,0.6,4.8,1.5c1.7,0.7,2.9,1.1,3.8,1.4c1.7,0.1,3.9,0.3,6.6,0.5c2.4,0,5.2,0.3,8.4,0.8c-1.4-0.3-3.3-0.9-5.9-1.7
	c-0.4-0.2-2.8-1.1-7.3-2.6c0.9-0.5,2-0.8,3.2-0.7c0.5-0.1,1.4,0,2.7,0.2c3.6,0.5,6,0.9,7,1.3c1,0.2,2.4,0.9,4.4,2.1
	c-0.4-1.3-1.2-2.5-2.2-3.6c-1.1-1-2.7-2.1-4.7-3.5c0-0.2,0-0.2,0-0.4c1.7,0.1,4,1.3,6.9,3.6c1.6,1,3.2,2.2,4.9,3.7
	c-0.1-0.9,0.1-1.4,0.4-1.7c0.1-1,0.5-1.8,1-2.4c0.2-0.1,0.5-0.1,1.1-0.1c0.3-0.3,0.6-0.3,0.9,0c0.3,0.8,0.5,1.7,0.5,2.9
	c-0.2,0.7-0.4,1.4-0.8,2.2c0.6-1,2-1.7,4.2-1.8c1.9-0.4,4-0.4,6.4,0c-0.2,0.8-0.3,1.7-0.3,2.6c-0.2-0.1-0.8,0.3-1.6,1.1
	c-0.2,0.1-0.3,0.2-0.5,0.4c0.5-0.3,1.2-0.5,2-0.6c0.8,0.2,1.4,0.6,1.8,1.2c5.1-1,12.1-1.4,21-1c8.5,0,15.3,0.4,20.4,1.1
	c4.7,0.6,12,1.9,21.9,4c9.7,1.9,16.1,3,19,3.5c2.7,0.4,5.4,0.8,8.1,1.3c-2.9-1.5-4.5-3.1-4.8-4.9c1.4,0.2,3,0.4,4.8,0.6
	c1.6,1.3,3.4,2.5,5.6,3.7c3.1,1.5,4.8,2.3,4.8,2.7c1.4-1.1,2.3-1.7,2.6-1.8c0.2-0.6,0.4-1.2,0.6-1.8c1.1,0,2.4,0.2,3.9,0.5
	c-0.1,1.3-0.1,2.3,0,2.9c0.1,0.9,0.4,1.7,0.9,2.5c0-0.1,0.1-0.1,0.5,0c0.1-0.3,0.3-0.5,0.4-0.5c1,0.5,2.8,1.5,5.5,3.1
	c2.5,1.2,4.6,2.7,6.5,4.3c0.1-0.3,0.2-0.2,0.3,0.1c-0.1-0.7-0.2-1.2,0-1.5c-0.2-1.9,0-3.4,0.6-4.8c1.2-4.2,4-6.2,8.5-5.8
	c0.1,1.1,0.4,3.1,0.8,6c0.2,2.5,0.5,4.5,0.9,5.9c0,0.4,0,0.8,0,1.3c1.5-3,3.1-5.5,4.9-7.3c2.8-3.7,5.7-5.1,8.9-4.2
	c0.6,1.3,1,3.3,1.2,6.1c0.1,1.8,0.1,3.2-0.1,4.2c0.9-1.5,3.1-3.1,6.6-4.7c3.7-1.9,7-3,9.8-3.3c2.1,0.1,4.3,0.4,6.8,0.8
	c0.4,1.5,0.6,3.6,0.6,6.1c-0.1,2.2-0.4,3.9-0.9,5.2c-0.1,0.1,0,0.4,0,0.8c0.6-2.1,4.2-4.5,10.8-7.3c5.9-3,10.1-4.4,12.7-4.3
	c-0.2,2.7-0.2,5.5-0.1,8.4c-0.7,1-1.6,2.9-2.7,5.8c-1,2.1-1.5,3.6-1.5,4.4c0,0.2,0,0.4,0,0.8c1.3-2.2,4.8-3.4,10.5-3.9
	c4.8-0.7,10-0.6,15.7,0.4c6.9,0.8,13.1,2.5,18.8,5.1c0.6,0,2.2,0.7,4.9,2.1c-1.4-0.9-2.8-2.2-4.2-4.1c-3-3.5-4.6-7-4.8-10.6
	c-0.1-1.9-0.1-3.7,0-5.3c2.9,0.8,6,2.4,9.2,4.6c4.1,2.6,6.8,5.4,7.9,8.4c0.1-0.1,0.5,0.1,1,0.5c0.1,0.1,0.4,0.3,0.9,0.6
	c-0.8-2.2,0.2-5,3-8.5c0.8-1.4,1.8-2.5,3-3.5c0.8-1,1.5-1.5,2-1.4c1.8,0.1,3.7,2.1,5.5,6.1c1.5,3.1,2.2,5.6,2,7.5
	c0.4-0.5,1.1-1.2,2.2-2.1c1-1.3,1.8-2.2,2.5-2.7c2.2-2.3,4.7-3.1,7.5-2.6c1.1-0.1,2,0.2,2.8,0.8c0.5,0.4,1.3,1.2,2.5,2.7
	c0.3-0.1,0.6-0.1,1,0.1c-0.2-0.2-1.7-1.7-4.6-4.5c-3.1-3.1-5.4-5.4-6.8-6.8c2.1-0.3,6.4,0.7,13,3.1c6.2,2,10.8,3.9,13.9,5.7
	c0.3-0.1,0.6-0.1,1,0.1c-6-3.2-9.7-5.3-11-6.3c-1.7-1.5-2.5-3-2.3-4.7c-0.2-1,0.5-1.7,1.9-2c0.4-0.4,1.1-0.6,1.9-0.6
	c2.7,0.1,6.8,2.5,12.1,7c5.1,4.1,8.3,7.7,9.8,10.9c0.7-0.4,1.9-1,3.5-2c0.8-1,2.2-2.1,4.1-3.4c2.1-1.9,4.1-3.2,6.1-3.6
	c1.2-0.6,2.2-0.7,3.1-0.4c2,0.1,3.5,0.6,4.4,1.3c0.5,0.5,0.8,2.2,1,5c-0.2,1.2-1.2,3.4-3.1,6.8c-2.2,3.1-3.1,5.2-2.9,6.3
	c1.8,0,4.9-0.5,9.5-1.6c4.5-1.6,6.9-2.2,7.3-1.9c2.8,0,5,1.3,6.4,3.7c0.4,1,0.7,2.1,0.9,3.5c0,0.2-0.1,0.5-0.3,0.9
	c-0.6,0.3-1.4,1-2.5,2c-0.2,0.2-0.2,0.5,0,0.9c2-2.2,5.1-3.3,9.1-3.4c1.2-0.1,4.5,0.1,10,0.5c2.3,0.1,4.4,0.5,6.2,1.3
	c1.5,0.5,2.7,0.9,3.5,1.2c0.1,0.5-0.1,1.2-0.7,2c-0.4,0-1.1,0.7-2.2,2c2.1,0,9.1,1.3,21.1,3.4c13.7,2.3,22.5,3.9,26.2,5.2
	c-0.5-1.1-1.3-2.1-2.5-3.1c-0.2-0.1-1.4-1.1-3.8-2.9c-1.8-1.3-2.9-2.3-3.2-3c-0.8-1.4-0.8-2.7-0.2-3.7c2.4,0.1,5,0.1,7.8,0.1
	c0.8,0.8,2.3,2,4.5,3.7c1.6,1.2,2.8,2.4,3.3,3.5c2.3-2,5.2-4.1,8.8-6.1c3.2-2.2,5.3-3.3,6.2-3.3c1.8,0,3.8,1.5,5.9,4.5
	c1.4,2.5,2.1,4.5,2.1,6c2.1-1,4.1-2,6.1-3.1c0.8-0.8,2.1-1.6,3.8-2.5c0.9-1,2.1-1.5,3.4-1.7c1.4-0.6,3.1-0.9,5.2-0.9
	c0.8-0.1,2-0.1,3.7-0.1c1.1-0.2,2-0.1,2.8,0.3c1.5,0.5,1.5,2.2,0.2,5.2c1-0.1,3.5-0.4,7.6-0.9c3.9-0.7,6.3-1.1,7.3-1
	c6.5-0.7,10.5-1.1,11.8-1.2c3.8-0.3,6.1-0.1,7.1,0.9c0-0.8,0.4-1.7,1.4-2.7c0.8-1.3,1.9-2.3,3.3-3.1c2.1-1.9,4.3-2.9,6.8-3
	c-0.5-0.4-1.2-0.8-2-1.1c-2.4-0.9-3.6-1.5-3.6-1.8c0-0.3,0-0.5,0-0.6c1.4,0.2,3.4,0.7,6.2,1.5c3,0.6,5.1,1.3,6.2,2
	c1.8-1.6,3.2-2.8,4.4-3.3c1.5-1,3-1.3,4.4-1.1c0.5,1,0.9,1.8,1.3,2.5c0.2,0.9,0.4,1.8,0.5,2.7c0.1-0.2,0.8-0.7,1.8-1.5
	c1-1.2,2.4-1.8,4-1.9c1.3-0.3,2.7,0.3,4.1,1.7c1,1.2,1.3,2.4,0.8,3.4c0,0.1,0,0.3,0,0.6c0.1-0.1,0.1-0.1,0.2-0.2c0,0.1,0,0.1,0,0.2
	c4.6-2,9-4,13.3-5.9c1.9-0.9,3.8-1.7,5.6-2.5c11.3-5,22.6-10,34-14.5c5.9-2.3,11.1-4.1,15.5-5.3c0.1,0,0.2-0.1,0.2-0.1
	c0.4-0.1,0.9-0.2,1.3-0.3c0,0,0,0,0,0.1h0.1c0.2,0,0.3-0.1,0.5-0.1c0.6-0.2,1.2-0.3,1.8-0.5C1228,372,1229,371.8,1230,371.5z"/>
</svg>
